%TF.GenerationSoftware,KiCad,Pcbnew,8.0.1*%
%TF.CreationDate,2024-03-24T23:20:46+02:00*%
%TF.ProjectId,MSHPRI017_Micro_Mouse_Subsystem,4d534850-5249-4303-9137-5f4d6963726f,rev?*%
%TF.SameCoordinates,Original*%
%TF.FileFunction,Copper,L1,Top*%
%TF.FilePolarity,Positive*%
%FSLAX46Y46*%
G04 Gerber Fmt 4.6, Leading zero omitted, Abs format (unit mm)*
G04 Created by KiCad (PCBNEW 8.0.1) date 2024-03-24 23:20:46*
%MOMM*%
%LPD*%
G01*
G04 APERTURE LIST*
G04 Aperture macros list*
%AMRoundRect*
0 Rectangle with rounded corners*
0 $1 Rounding radius*
0 $2 $3 $4 $5 $6 $7 $8 $9 X,Y pos of 4 corners*
0 Add a 4 corners polygon primitive as box body*
4,1,4,$2,$3,$4,$5,$6,$7,$8,$9,$2,$3,0*
0 Add four circle primitives for the rounded corners*
1,1,$1+$1,$2,$3*
1,1,$1+$1,$4,$5*
1,1,$1+$1,$6,$7*
1,1,$1+$1,$8,$9*
0 Add four rect primitives between the rounded corners*
20,1,$1+$1,$2,$3,$4,$5,0*
20,1,$1+$1,$4,$5,$6,$7,0*
20,1,$1+$1,$6,$7,$8,$9,0*
20,1,$1+$1,$8,$9,$2,$3,0*%
G04 Aperture macros list end*
%ADD10C,0.300000*%
%TA.AperFunction,NonConductor*%
%ADD11C,0.300000*%
%TD*%
%TA.AperFunction,SMDPad,CuDef*%
%ADD12R,1.100000X1.380000*%
%TD*%
%TA.AperFunction,SMDPad,CuDef*%
%ADD13R,1.200000X1.820000*%
%TD*%
%TA.AperFunction,SMDPad,CuDef*%
%ADD14R,0.900000X0.950000*%
%TD*%
%TA.AperFunction,SMDPad,CuDef*%
%ADD15RoundRect,0.062500X-0.187500X-0.062500X0.187500X-0.062500X0.187500X0.062500X-0.187500X0.062500X0*%
%TD*%
%TA.AperFunction,SMDPad,CuDef*%
%ADD16R,0.900000X1.600000*%
%TD*%
%TA.AperFunction,SMDPad,CuDef*%
%ADD17R,0.900000X1.400000*%
%TD*%
%TA.AperFunction,SMDPad,CuDef*%
%ADD18R,0.750000X0.850000*%
%TD*%
%TA.AperFunction,SMDPad,CuDef*%
%ADD19R,1.000000X1.450000*%
%TD*%
%TA.AperFunction,ComponentPad*%
%ADD20R,1.308000X1.308000*%
%TD*%
%TA.AperFunction,ComponentPad*%
%ADD21C,1.308000*%
%TD*%
%TA.AperFunction,SMDPad,CuDef*%
%ADD22R,0.570000X1.200000*%
%TD*%
%TA.AperFunction,SMDPad,CuDef*%
%ADD23R,1.000000X1.000000*%
%TD*%
%TA.AperFunction,SMDPad,CuDef*%
%ADD24RoundRect,0.042000X-0.943000X-0.258000X0.943000X-0.258000X0.943000X0.258000X-0.943000X0.258000X0*%
%TD*%
%TA.AperFunction,SMDPad,CuDef*%
%ADD25R,2.413000X3.302000*%
%TD*%
%TA.AperFunction,SMDPad,CuDef*%
%ADD26R,0.800000X0.800000*%
%TD*%
%TA.AperFunction,ComponentPad*%
%ADD27R,1.700000X1.700000*%
%TD*%
%TA.AperFunction,ComponentPad*%
%ADD28O,1.700000X1.700000*%
%TD*%
%TA.AperFunction,ViaPad*%
%ADD29C,0.800000*%
%TD*%
%TA.AperFunction,Conductor*%
%ADD30C,0.250000*%
%TD*%
%TA.AperFunction,Conductor*%
%ADD31C,0.200000*%
%TD*%
G04 APERTURE END LIST*
D10*
D11*
X118872257Y-69659774D02*
X118800828Y-69802632D01*
X118800828Y-69802632D02*
X118800828Y-70016917D01*
X118800828Y-70016917D02*
X118872257Y-70231203D01*
X118872257Y-70231203D02*
X119015114Y-70374060D01*
X119015114Y-70374060D02*
X119157971Y-70445489D01*
X119157971Y-70445489D02*
X119443685Y-70516917D01*
X119443685Y-70516917D02*
X119657971Y-70516917D01*
X119657971Y-70516917D02*
X119943685Y-70445489D01*
X119943685Y-70445489D02*
X120086542Y-70374060D01*
X120086542Y-70374060D02*
X120229400Y-70231203D01*
X120229400Y-70231203D02*
X120300828Y-70016917D01*
X120300828Y-70016917D02*
X120300828Y-69874060D01*
X120300828Y-69874060D02*
X120229400Y-69659774D01*
X120229400Y-69659774D02*
X120157971Y-69588346D01*
X120157971Y-69588346D02*
X119657971Y-69588346D01*
X119657971Y-69588346D02*
X119657971Y-69874060D01*
X120300828Y-68945489D02*
X119300828Y-68945489D01*
X119586542Y-68945489D02*
X119443685Y-68874060D01*
X119443685Y-68874060D02*
X119372257Y-68802632D01*
X119372257Y-68802632D02*
X119300828Y-68659774D01*
X119300828Y-68659774D02*
X119300828Y-68516917D01*
X120300828Y-67802632D02*
X120229400Y-67945489D01*
X120229400Y-67945489D02*
X120157971Y-68016918D01*
X120157971Y-68016918D02*
X120015114Y-68088346D01*
X120015114Y-68088346D02*
X119586542Y-68088346D01*
X119586542Y-68088346D02*
X119443685Y-68016918D01*
X119443685Y-68016918D02*
X119372257Y-67945489D01*
X119372257Y-67945489D02*
X119300828Y-67802632D01*
X119300828Y-67802632D02*
X119300828Y-67588346D01*
X119300828Y-67588346D02*
X119372257Y-67445489D01*
X119372257Y-67445489D02*
X119443685Y-67374061D01*
X119443685Y-67374061D02*
X119586542Y-67302632D01*
X119586542Y-67302632D02*
X120015114Y-67302632D01*
X120015114Y-67302632D02*
X120157971Y-67374061D01*
X120157971Y-67374061D02*
X120229400Y-67445489D01*
X120229400Y-67445489D02*
X120300828Y-67588346D01*
X120300828Y-67588346D02*
X120300828Y-67802632D01*
X119300828Y-66016918D02*
X120300828Y-66016918D01*
X119300828Y-66659775D02*
X120086542Y-66659775D01*
X120086542Y-66659775D02*
X120229400Y-66588346D01*
X120229400Y-66588346D02*
X120300828Y-66445489D01*
X120300828Y-66445489D02*
X120300828Y-66231203D01*
X120300828Y-66231203D02*
X120229400Y-66088346D01*
X120229400Y-66088346D02*
X120157971Y-66016918D01*
X119300828Y-65302632D02*
X120800828Y-65302632D01*
X119372257Y-65302632D02*
X119300828Y-65159775D01*
X119300828Y-65159775D02*
X119300828Y-64874060D01*
X119300828Y-64874060D02*
X119372257Y-64731203D01*
X119372257Y-64731203D02*
X119443685Y-64659775D01*
X119443685Y-64659775D02*
X119586542Y-64588346D01*
X119586542Y-64588346D02*
X120015114Y-64588346D01*
X120015114Y-64588346D02*
X120157971Y-64659775D01*
X120157971Y-64659775D02*
X120229400Y-64731203D01*
X120229400Y-64731203D02*
X120300828Y-64874060D01*
X120300828Y-64874060D02*
X120300828Y-65159775D01*
X120300828Y-65159775D02*
X120229400Y-65302632D01*
X118800828Y-62945489D02*
X118800828Y-62016917D01*
X118800828Y-62016917D02*
X119372257Y-62516917D01*
X119372257Y-62516917D02*
X119372257Y-62302632D01*
X119372257Y-62302632D02*
X119443685Y-62159775D01*
X119443685Y-62159775D02*
X119515114Y-62088346D01*
X119515114Y-62088346D02*
X119657971Y-62016917D01*
X119657971Y-62016917D02*
X120015114Y-62016917D01*
X120015114Y-62016917D02*
X120157971Y-62088346D01*
X120157971Y-62088346D02*
X120229400Y-62159775D01*
X120229400Y-62159775D02*
X120300828Y-62302632D01*
X120300828Y-62302632D02*
X120300828Y-62731203D01*
X120300828Y-62731203D02*
X120229400Y-62874060D01*
X120229400Y-62874060D02*
X120157971Y-62945489D01*
X118943685Y-61445489D02*
X118872257Y-61374061D01*
X118872257Y-61374061D02*
X118800828Y-61231204D01*
X118800828Y-61231204D02*
X118800828Y-60874061D01*
X118800828Y-60874061D02*
X118872257Y-60731204D01*
X118872257Y-60731204D02*
X118943685Y-60659775D01*
X118943685Y-60659775D02*
X119086542Y-60588346D01*
X119086542Y-60588346D02*
X119229400Y-60588346D01*
X119229400Y-60588346D02*
X119443685Y-60659775D01*
X119443685Y-60659775D02*
X120300828Y-61516918D01*
X120300828Y-61516918D02*
X120300828Y-60588346D01*
X120157971Y-59945490D02*
X120229400Y-59874061D01*
X120229400Y-59874061D02*
X120300828Y-59945490D01*
X120300828Y-59945490D02*
X120229400Y-60016918D01*
X120229400Y-60016918D02*
X120157971Y-59945490D01*
X120157971Y-59945490D02*
X120300828Y-59945490D01*
X119729400Y-59945490D02*
X118872257Y-60016918D01*
X118872257Y-60016918D02*
X118800828Y-59945490D01*
X118800828Y-59945490D02*
X118872257Y-59874061D01*
X118872257Y-59874061D02*
X119729400Y-59945490D01*
X119729400Y-59945490D02*
X118800828Y-59945490D01*
D12*
%TO.P,C9,1*%
%TO.N,Bat-*%
X101774000Y-60500000D03*
%TO.P,C9,2*%
%TO.N,5V_uC*%
X103500000Y-60500000D03*
%TD*%
D13*
%TO.P,C1,1*%
%TO.N,Batt*%
X115080000Y-51500000D03*
%TO.P,C1,2*%
%TO.N,Bat-*%
X118000000Y-51500000D03*
%TD*%
D14*
%TO.P,R3,1,1*%
%TO.N,Net-(U1-PROG)*%
X123400000Y-56000000D03*
%TO.P,R3,2,2*%
%TO.N,Bat-*%
X125000000Y-56000000D03*
%TD*%
D15*
%TO.P,MotorDriver1,1,VM*%
%TO.N,Batt*%
X129100000Y-61500000D03*
%TO.P,MotorDriver1,2,OUT1*%
%TO.N,Motor1_A*%
X129100000Y-62000000D03*
%TO.P,MotorDriver1,3,OUT2*%
%TO.N,Motor1_B*%
X129100000Y-62500000D03*
%TO.P,MotorDriver1,4,GND*%
%TO.N,Bat-*%
X129100000Y-63000000D03*
%TO.P,MotorDriver1,5,IN2*%
%TO.N,PWM1_B*%
X131000000Y-63000000D03*
%TO.P,MotorDriver1,6,IN1*%
%TO.N,PWM1_A*%
X131000000Y-62500000D03*
%TO.P,MotorDriver1,7,~{SLEEP}*%
%TO.N,Batt*%
X131000000Y-62000000D03*
%TO.P,MotorDriver1,8,VCC*%
X131000000Y-61500000D03*
D16*
%TO.P,MotorDriver1,9,GND*%
%TO.N,Bat-*%
X130050000Y-62250000D03*
%TD*%
D17*
%TO.P,SW1,1,A*%
%TO.N,Bat+*%
X130500000Y-79000000D03*
%TO.P,SW1,2,B*%
%TO.N,Batt*%
X133500000Y-79000000D03*
%TO.P,SW1,3,C*%
%TO.N,unconnected-(SW1-C-Pad3)*%
X135000000Y-79000000D03*
D18*
%TO.P,SW1,4*%
%TO.N,N/C*%
X129375000Y-79967000D03*
%TO.P,SW1,5*%
X129375000Y-82117000D03*
%TO.P,SW1,6*%
X136125000Y-79967000D03*
%TO.P,SW1,7*%
X136125000Y-82092000D03*
%TD*%
D12*
%TO.P,C10,1*%
%TO.N,Bat-*%
X101774000Y-65000000D03*
%TO.P,C10,2*%
%TO.N,Bat+*%
X103500000Y-65000000D03*
%TD*%
D19*
%TO.P,R1,1,1*%
%TO.N,Bat+*%
X137100000Y-52950000D03*
%TO.P,R1,2,2*%
%TO.N,V_ADC*%
X139000000Y-52950000D03*
%TD*%
D20*
%TO.P,J2,1,1*%
%TO.N,Bat-*%
X102000000Y-82000000D03*
D21*
%TO.P,J2,2,2*%
%TO.N,Bat+*%
X102000000Y-80000000D03*
%TD*%
D22*
%TO.P,D1,A*%
%TO.N,5V_uC*%
X104000000Y-56000000D03*
%TO.P,D1,C*%
%TO.N,Net-(D1-PadC)*%
X102470000Y-56000000D03*
%TD*%
D13*
%TO.P,C2,1*%
%TO.N,Batt*%
X121580000Y-52000000D03*
%TO.P,C2,2*%
%TO.N,Bat-*%
X124500000Y-52000000D03*
%TD*%
%TO.P,C3,1*%
%TO.N,Batt*%
X118080000Y-56000000D03*
%TO.P,C3,2*%
%TO.N,Bat-*%
X121000000Y-56000000D03*
%TD*%
D15*
%TO.P,MotorDriver2,1,VM*%
%TO.N,Batt*%
X129100000Y-72000000D03*
%TO.P,MotorDriver2,2,OUT1*%
%TO.N,Motor2_A*%
X129100000Y-72500000D03*
%TO.P,MotorDriver2,3,OUT2*%
%TO.N,Motor2_B*%
X129100000Y-73000000D03*
%TO.P,MotorDriver2,4,GND*%
%TO.N,Bat-*%
X129100000Y-73500000D03*
%TO.P,MotorDriver2,5,IN2*%
%TO.N,PWM2_B*%
X131000000Y-73500000D03*
%TO.P,MotorDriver2,6,IN1*%
%TO.N,PWM2_A*%
X131000000Y-73000000D03*
%TO.P,MotorDriver2,7,~{SLEEP}*%
%TO.N,Batt*%
X131000000Y-72500000D03*
%TO.P,MotorDriver2,8,VCC*%
X131000000Y-72000000D03*
D16*
%TO.P,MotorDriver2,9,GND*%
%TO.N,Bat-*%
X130050000Y-72750000D03*
%TD*%
D23*
%TO.P,TP1,1,1*%
%TO.N,Batt*%
X122500000Y-82500000D03*
%TD*%
%TO.P,TP2,1,1*%
%TO.N,V_ADC*%
X115500000Y-82500000D03*
%TD*%
D24*
%TO.P,U1,1,TEMP*%
%TO.N,Bat-*%
X128025000Y-52595000D03*
%TO.P,U1,2,PROG*%
%TO.N,Net-(U1-PROG)*%
X128025000Y-53865000D03*
%TO.P,U1,3,GND*%
%TO.N,Bat-*%
X128025000Y-55135000D03*
%TO.P,U1,4,VCC*%
%TO.N,5V_uC*%
X128025000Y-56405000D03*
%TO.P,U1,5,BAT*%
%TO.N,Bat+*%
X132975000Y-56405000D03*
%TO.P,U1,6,~{STDBY}*%
%TO.N,Net-(U1-~{STDBY})*%
X132975000Y-55135000D03*
%TO.P,U1,7,~{CHRG}*%
%TO.N,Net-(U1-~{CHRG})*%
X132975000Y-53865000D03*
%TO.P,U1,8,CE*%
%TO.N,5V_uC*%
X132975000Y-52595000D03*
D25*
%TO.P,U1,9,EP*%
X130500000Y-54500000D03*
%TD*%
D13*
%TO.P,C4,1*%
%TO.N,Batt*%
X108080000Y-52500000D03*
%TO.P,C4,2*%
%TO.N,Bat-*%
X111000000Y-52500000D03*
%TD*%
D26*
%TO.P,D2,A*%
%TO.N,5V_uC*%
X103500000Y-51500000D03*
%TO.P,D2,C*%
%TO.N,Net-(D2-PadC)*%
X102000000Y-51500000D03*
%TD*%
D14*
%TO.P,R4,1,1*%
%TO.N,Net-(U1-~{STDBY})*%
X136900000Y-62500000D03*
%TO.P,R4,2,2*%
%TO.N,Net-(D2-PadC)*%
X138500000Y-62500000D03*
%TD*%
D19*
%TO.P,R2,1,1*%
%TO.N,V_ADC*%
X137100000Y-56000000D03*
%TO.P,R2,2,2*%
%TO.N,Bat-*%
X139000000Y-56000000D03*
%TD*%
D14*
%TO.P,R5,1,1*%
%TO.N,Net-(U1-~{CHRG})*%
X137400000Y-60000000D03*
%TO.P,R5,2,2*%
%TO.N,Net-(D1-PadC)*%
X139000000Y-60000000D03*
%TD*%
D27*
%TO.P,J1,1,Pin_1*%
%TO.N,Motor2_A*%
X113500000Y-59500000D03*
D28*
%TO.P,J1,2,Pin_2*%
%TO.N,PWM2_A*%
X110960000Y-59500000D03*
%TO.P,J1,3,Pin_3*%
%TO.N,Motor2_B*%
X113500000Y-62040000D03*
%TO.P,J1,4,Pin_4*%
%TO.N,PWM2_B*%
X110960000Y-62040000D03*
%TO.P,J1,5,Pin_5*%
%TO.N,Bat-*%
X113500000Y-64580000D03*
%TO.P,J1,6,Pin_6*%
X110960000Y-64580000D03*
%TO.P,J1,7,Pin_7*%
%TO.N,Batt*%
X113500000Y-67120000D03*
%TO.P,J1,8,Pin_8*%
X110960000Y-67120000D03*
%TO.P,J1,9,Pin_9*%
%TO.N,unconnected-(J1-Pin_9-Pad9)*%
X113500000Y-69660000D03*
%TO.P,J1,10,Pin_10*%
%TO.N,V_ADC*%
X110960000Y-69660000D03*
%TO.P,J1,11,Pin_11*%
%TO.N,5V_uC*%
X113500000Y-72200000D03*
%TO.P,J1,12,Pin_12*%
X110960000Y-72200000D03*
%TO.P,J1,13,Pin_13*%
%TO.N,Motor1_A*%
X113500000Y-74740000D03*
%TO.P,J1,14,Pin_14*%
%TO.N,PWM1_A*%
X110960000Y-74740000D03*
%TO.P,J1,15,Pin_15*%
%TO.N,Motor1_B*%
X113500000Y-77280000D03*
%TO.P,J1,16,Pin_16*%
%TO.N,PWM1_B*%
X110960000Y-77280000D03*
%TD*%
D29*
%TO.N,Batt*%
X116000000Y-57500000D03*
X108700000Y-68000000D03*
X133500000Y-61500000D03*
X112500000Y-67500000D03*
X115965025Y-68034975D03*
X130500000Y-64500000D03*
X128688152Y-61312927D03*
X125500000Y-63500000D03*
X117000000Y-69500000D03*
X132750000Y-70250000D03*
X125250000Y-65250000D03*
%TO.N,Bat-*%
X122500000Y-54500000D03*
X118000000Y-51500000D03*
%TO.N,5V_uC*%
X129500000Y-60000000D03*
X123000000Y-60500000D03*
X105000000Y-59000000D03*
X125500000Y-68500000D03*
%TO.N,PWM2_A*%
X110000000Y-57000000D03*
X116500000Y-71000000D03*
%TO.N,PWM2_B*%
X108000000Y-63000000D03*
X108000000Y-63000000D03*
X117000000Y-74500000D03*
%TO.N,Motor1_A*%
X127000000Y-60500000D03*
%TO.N,Motor1_B*%
X127850000Y-69500000D03*
X132000000Y-66500000D03*
X127500000Y-77500000D03*
X127850000Y-63235050D03*
%TO.N,PWM1_B*%
X135500000Y-77000000D03*
X136000000Y-71500000D03*
%TO.N,Bat+*%
X107000000Y-65000000D03*
X105000000Y-62000000D03*
X104750000Y-66250000D03*
X129500000Y-58500000D03*
X131500000Y-59500000D03*
%TO.N,Net-(D1-PadC)*%
X135000000Y-65000000D03*
X139012653Y-59987347D03*
X132500000Y-63200000D03*
X136005025Y-63994975D03*
X101500000Y-67500000D03*
%TO.N,Net-(D2-PadC)*%
X132500000Y-59000000D03*
X133500000Y-59000000D03*
X107500000Y-57000000D03*
X135500000Y-61000000D03*
%TO.N,Net-(U1-PROG)*%
X128025000Y-53865000D03*
X125000000Y-54500000D03*
%TO.N,Net-(U1-~{STDBY})*%
X138500000Y-64500000D03*
%TO.N,Net-(U1-~{CHRG})*%
X138500000Y-58500000D03*
X136000000Y-56500000D03*
%TD*%
D30*
%TO.N,Batt*%
X111340000Y-67500000D02*
X110960000Y-67120000D01*
D31*
X131000000Y-72000000D02*
X130500000Y-71500000D01*
D30*
X112500000Y-67500000D02*
X111340000Y-67500000D01*
D31*
X131550000Y-71950000D02*
X131000000Y-72500000D01*
D30*
X109315000Y-51265000D02*
X108080000Y-52500000D01*
D31*
X114414975Y-68034975D02*
X115965025Y-68034975D01*
D30*
X117000000Y-69500000D02*
X117000000Y-69458860D01*
X114661140Y-67120000D02*
X113500000Y-67120000D01*
X115080000Y-56580000D02*
X116000000Y-57500000D01*
D31*
X131550000Y-71950000D02*
X131550000Y-71450000D01*
X125500000Y-63500000D02*
X127687073Y-61312927D01*
X128835614Y-61500000D02*
X129100000Y-61500000D01*
X129100000Y-72000000D02*
X128550000Y-71450000D01*
X131000000Y-72000000D02*
X132750000Y-70250000D01*
X131550000Y-71450000D02*
X132750000Y-70250000D01*
D30*
X117000000Y-69458860D02*
X114661140Y-67120000D01*
X100568750Y-83068750D02*
X102889250Y-83068750D01*
X116080000Y-57500000D02*
X116000000Y-57500000D01*
X122500000Y-82500000D02*
X121675000Y-83325000D01*
X102889250Y-83068750D02*
X108700000Y-77258000D01*
X115080000Y-51500000D02*
X115080000Y-56580000D01*
D31*
X131000000Y-61500000D02*
X133500000Y-61500000D01*
D30*
X114845000Y-51265000D02*
X109315000Y-51265000D01*
D31*
X125250000Y-63750000D02*
X125500000Y-63500000D01*
X125250000Y-65250000D02*
X125250000Y-63750000D01*
D30*
X115080000Y-51500000D02*
X114845000Y-51265000D01*
X121675000Y-83325000D02*
X101367000Y-83325000D01*
D31*
X130500000Y-71500000D02*
X130500000Y-64500000D01*
X127687073Y-61312927D02*
X128688152Y-61312927D01*
X128550000Y-71450000D02*
X128550000Y-61785614D01*
D30*
X100568750Y-82526750D02*
X100568750Y-72275000D01*
X101367000Y-83325000D02*
X100568750Y-82526750D01*
D31*
X113500000Y-67120000D02*
X114414975Y-68034975D01*
D30*
X100568750Y-72275000D02*
X100568750Y-83068750D01*
D31*
X131000000Y-61500000D02*
X131000000Y-62000000D01*
D30*
X121580000Y-52000000D02*
X116080000Y-57500000D01*
D31*
X110960000Y-67120000D02*
X113500000Y-67120000D01*
D30*
X108700000Y-77258000D02*
X108700000Y-68000000D01*
X100568750Y-72275000D02*
X101593750Y-71250000D01*
D31*
X128550000Y-61785614D02*
X128835614Y-61500000D01*
%TO.N,Bat-*%
X125595000Y-52595000D02*
X128025000Y-52595000D01*
X125000000Y-56000000D02*
X125865000Y-55135000D01*
X107180000Y-51290000D02*
X107180000Y-53710000D01*
X111000000Y-54840000D02*
X111000000Y-52500000D01*
X102000000Y-82000000D02*
X105810750Y-78189250D01*
X108180000Y-50290000D02*
X107180000Y-51290000D01*
X130050000Y-72814386D02*
X130050000Y-72750000D01*
X127040001Y-52595000D02*
X126740000Y-52895001D01*
X129650000Y-62714386D02*
X129364386Y-63000000D01*
X109790000Y-53710000D02*
X111000000Y-52500000D01*
X124225000Y-56775000D02*
X125000000Y-56000000D01*
X105810750Y-78189250D02*
X105810750Y-65470750D01*
X129650000Y-63550000D02*
X129100000Y-63000000D01*
X126740000Y-52895001D02*
X126740000Y-58375614D01*
X128025000Y-52595000D02*
X127040001Y-52595000D01*
X118000000Y-51500000D02*
X116790000Y-50290000D01*
X121000000Y-56000000D02*
X121500000Y-56000000D01*
X130050000Y-61685614D02*
X130050000Y-62250000D01*
X121500000Y-56000000D02*
X122275000Y-56775000D01*
X101774000Y-60500000D02*
X101774000Y-65000000D01*
X129100000Y-73500000D02*
X129364386Y-73500000D01*
X130935614Y-60800000D02*
X130050000Y-61685614D01*
X125000000Y-52000000D02*
X125595000Y-52595000D01*
X129650000Y-73214386D02*
X129650000Y-63550000D01*
X125865000Y-55135000D02*
X128025000Y-55135000D01*
X105810750Y-65470750D02*
X104350000Y-64010000D01*
X126740000Y-52895001D02*
X126740000Y-54834999D01*
X126740000Y-54834999D02*
X127040001Y-55135000D01*
X129364386Y-73500000D02*
X129650000Y-73214386D01*
X134200000Y-60800000D02*
X130935614Y-60800000D01*
X129650000Y-61285614D02*
X129650000Y-62714386D01*
X110960000Y-64580000D02*
X113500000Y-64580000D01*
X129364386Y-63000000D02*
X129100000Y-63000000D01*
X124500000Y-52000000D02*
X125000000Y-52000000D01*
X126740000Y-58375614D02*
X130050000Y-61685614D01*
X102764000Y-64010000D02*
X101774000Y-65000000D01*
X101774000Y-60500000D02*
X102764000Y-61490000D01*
X129364386Y-73500000D02*
X130050000Y-72814386D01*
X102764000Y-61490000D02*
X104350000Y-61490000D01*
X121000000Y-56000000D02*
X122500000Y-54500000D01*
X127040001Y-55135000D02*
X128025000Y-55135000D01*
X139000000Y-56000000D02*
X134200000Y-60800000D01*
X126740000Y-58375614D02*
X129650000Y-61285614D01*
X107180000Y-53710000D02*
X109790000Y-53710000D01*
X116790000Y-50290000D02*
X108180000Y-50290000D01*
X104350000Y-64010000D02*
X102764000Y-64010000D01*
X122275000Y-56775000D02*
X124225000Y-56775000D01*
X104350000Y-61490000D02*
X111000000Y-54840000D01*
%TO.N,5V_uC*%
X110960000Y-72200000D02*
X113500000Y-72200000D01*
D30*
X128025000Y-56405000D02*
X128595000Y-56405000D01*
X128025000Y-56405000D02*
X128025000Y-58525000D01*
X128595000Y-56405000D02*
X130500000Y-54500000D01*
X128025000Y-58525000D02*
X129500000Y-60000000D01*
X132975000Y-52595000D02*
X132405000Y-52595000D01*
X123000000Y-66000000D02*
X125500000Y-68500000D01*
X132405000Y-52595000D02*
X130500000Y-54500000D01*
X103500000Y-51500000D02*
X103500000Y-55500000D01*
X103500000Y-60500000D02*
X103500000Y-56500000D01*
X103500000Y-55500000D02*
X104000000Y-56000000D01*
X103500000Y-60500000D02*
X105000000Y-59000000D01*
X103500000Y-56500000D02*
X104000000Y-56000000D01*
X123000000Y-60500000D02*
X123000000Y-66000000D01*
D31*
%TO.N,Motor2_A*%
X126500000Y-72500000D02*
X113500000Y-59500000D01*
X129100000Y-72500000D02*
X126500000Y-72500000D01*
%TO.N,PWM2_A*%
X116710050Y-75200000D02*
X116300000Y-74789950D01*
X131550000Y-73285614D02*
X131550000Y-73714386D01*
X110000000Y-57000000D02*
X110000000Y-58540000D01*
X110000000Y-58540000D02*
X110960000Y-59500000D01*
X131000000Y-73000000D02*
X131264386Y-73000000D01*
X130064386Y-75200000D02*
X116710050Y-75200000D01*
X131550000Y-73714386D02*
X130064386Y-75200000D01*
X116300000Y-71200000D02*
X116500000Y-71000000D01*
X131264386Y-73000000D02*
X131550000Y-73285614D01*
X116300000Y-74789950D02*
X116300000Y-71200000D01*
%TO.N,Motor2_B*%
X129100000Y-73000000D02*
X124460000Y-73000000D01*
X124460000Y-73000000D02*
X113500000Y-62040000D01*
%TO.N,PWM2_B*%
X110000000Y-63000000D02*
X110960000Y-62040000D01*
X131000000Y-73500000D02*
X130000000Y-74500000D01*
X130000000Y-74500000D02*
X117000000Y-74500000D01*
X108000000Y-63000000D02*
X110000000Y-63000000D01*
D30*
%TO.N,V_ADC*%
X139825000Y-53775000D02*
X139000000Y-52950000D01*
X110873299Y-78855000D02*
X134670305Y-78855000D01*
X134670305Y-78855000D02*
X139825000Y-73700305D01*
X139000000Y-52950000D02*
X139000000Y-54100000D01*
X139000000Y-54100000D02*
X137100000Y-56000000D01*
X110473299Y-73565000D02*
X109785000Y-74253299D01*
X113946040Y-70835000D02*
X115375000Y-72263960D01*
X110960000Y-69660000D02*
X112135000Y-70835000D01*
X109785000Y-77766701D02*
X110873299Y-78855000D01*
X114073960Y-73565000D02*
X110473299Y-73565000D01*
X109785000Y-77766701D02*
X114518299Y-82500000D01*
X112135000Y-70835000D02*
X113946040Y-70835000D01*
X114518299Y-82500000D02*
X115500000Y-82500000D01*
X139825000Y-73700305D02*
X139825000Y-53775000D01*
X109785000Y-74253299D02*
X109785000Y-77766701D01*
X115375000Y-72263960D02*
X114073960Y-73565000D01*
D31*
%TO.N,Motor1_A*%
X109810000Y-64103654D02*
X110483654Y-63430000D01*
X129100000Y-62000000D02*
X129000000Y-62000000D01*
X124850000Y-58350000D02*
X127000000Y-60500000D01*
X113500000Y-74740000D02*
X115800000Y-72440000D01*
X112350000Y-58350000D02*
X124850000Y-58350000D01*
X109810000Y-67596346D02*
X109810000Y-64103654D01*
X115375075Y-68434975D02*
X110648629Y-68434975D01*
X112350000Y-62516346D02*
X112350000Y-58350000D01*
X110483654Y-63430000D02*
X111436346Y-63430000D01*
X115800000Y-72440000D02*
X115800000Y-68859900D01*
X129000000Y-62000000D02*
X129000000Y-62075000D01*
X110648629Y-68434975D02*
X109810000Y-67596346D01*
X111436346Y-63430000D02*
X112350000Y-62516346D01*
X129000000Y-62075000D02*
X128950000Y-62075000D01*
X115800000Y-68859900D02*
X115375075Y-68434975D01*
%TO.N,PWM1_A*%
X112110000Y-75890000D02*
X136610000Y-75890000D01*
X135000000Y-62000000D02*
X134500000Y-62500000D01*
X110960000Y-74740000D02*
X112110000Y-75890000D01*
X137000000Y-64000000D02*
X135000000Y-62000000D01*
X137000000Y-75500000D02*
X137000000Y-64000000D01*
X136610000Y-75890000D02*
X137000000Y-75500000D01*
X134500000Y-62500000D02*
X131000000Y-62500000D01*
D30*
%TO.N,Motor1_B*%
X127850000Y-69500000D02*
X127850000Y-63235050D01*
X113500000Y-77280000D02*
X127280000Y-77280000D01*
X127280000Y-77280000D02*
X127500000Y-77500000D01*
D31*
%TO.N,PWM1_B*%
X112110000Y-78430000D02*
X110960000Y-77280000D01*
X131000000Y-63000000D02*
X136000000Y-68000000D01*
X135500000Y-77000000D02*
X134070000Y-78430000D01*
X134070000Y-78430000D02*
X112110000Y-78430000D01*
X136000000Y-68000000D02*
X136000000Y-71500000D01*
%TO.N,Bat+*%
X132975000Y-56405000D02*
X132975000Y-57525000D01*
X137100000Y-52950000D02*
X133645000Y-56405000D01*
X132975000Y-57525000D02*
X131500000Y-59000000D01*
X105410750Y-70433000D02*
X101593750Y-74250000D01*
X103500000Y-65000000D02*
X104750000Y-66250000D01*
X130880000Y-58500000D02*
X129500000Y-58500000D01*
X131500000Y-59000000D02*
X131500000Y-59500000D01*
X104750000Y-66250000D02*
X105410750Y-66910750D01*
X132975000Y-56405000D02*
X130880000Y-58500000D01*
X105410750Y-66910750D02*
X105410750Y-70433000D01*
X105000000Y-62000000D02*
X105000000Y-63000000D01*
X101593750Y-79593750D02*
X101593750Y-74250000D01*
X105000000Y-63000000D02*
X107000000Y-65000000D01*
X102000000Y-80000000D02*
X101593750Y-79593750D01*
X133645000Y-56405000D02*
X132975000Y-56405000D01*
D30*
%TO.N,Net-(D1-PadC)*%
X102470000Y-56000000D02*
X100899000Y-57571000D01*
X100899000Y-66899000D02*
X101500000Y-67500000D01*
X100899000Y-57571000D02*
X100899000Y-66899000D01*
X133200000Y-63200000D02*
X135000000Y-65000000D01*
X132500000Y-63200000D02*
X133200000Y-63200000D01*
%TO.N,Net-(D2-PadC)*%
X137000000Y-61000000D02*
X135500000Y-61000000D01*
X104225000Y-53725000D02*
X107500000Y-57000000D01*
X102725000Y-50775000D02*
X104225000Y-50775000D01*
X138500000Y-62500000D02*
X137000000Y-61000000D01*
X102000000Y-51500000D02*
X102725000Y-50775000D01*
X104225000Y-50775000D02*
X104225000Y-53725000D01*
X133500000Y-59000000D02*
X132500000Y-59000000D01*
%TO.N,Net-(U1-PROG)*%
X123400000Y-56000000D02*
X123500000Y-56000000D01*
X123500000Y-56000000D02*
X125000000Y-54500000D01*
%TO.N,Net-(U1-~{STDBY})*%
X136900000Y-62500000D02*
X136900000Y-62900000D01*
X136900000Y-62900000D02*
X138500000Y-64500000D01*
%TO.N,Net-(U1-~{CHRG})*%
X136000000Y-54651040D02*
X136000000Y-56500000D01*
X133959999Y-53865000D02*
X135924999Y-51900000D01*
X137925000Y-54000000D02*
X136651040Y-54000000D01*
X138500000Y-58900000D02*
X137400000Y-60000000D01*
X132975000Y-53865000D02*
X133959999Y-53865000D01*
X137925000Y-51900000D02*
X137925000Y-54000000D01*
X135924999Y-51900000D02*
X137925000Y-51900000D01*
X136651040Y-54000000D02*
X136000000Y-54651040D01*
X138500000Y-58500000D02*
X138500000Y-58900000D01*
%TD*%
%TA.AperFunction,Conductor*%
%TO.N,Bat-*%
G36*
X102417263Y-50019685D02*
G01*
X102463018Y-50072489D01*
X102472962Y-50141647D01*
X102443937Y-50205203D01*
X102419135Y-50227088D01*
X102418580Y-50227459D01*
X102418556Y-50227474D01*
X102418557Y-50227475D01*
X102326268Y-50289140D01*
X102282705Y-50332703D01*
X102239142Y-50376267D01*
X102239139Y-50376270D01*
X102052227Y-50563181D01*
X101990904Y-50596666D01*
X101964546Y-50599500D01*
X101552129Y-50599500D01*
X101552123Y-50599501D01*
X101492516Y-50605908D01*
X101357671Y-50656202D01*
X101357664Y-50656206D01*
X101242455Y-50742452D01*
X101242452Y-50742455D01*
X101156206Y-50857664D01*
X101156202Y-50857671D01*
X101105908Y-50992517D01*
X101099501Y-51052116D01*
X101099500Y-51052135D01*
X101099500Y-51947870D01*
X101099501Y-51947876D01*
X101105908Y-52007483D01*
X101156202Y-52142328D01*
X101156206Y-52142335D01*
X101242452Y-52257544D01*
X101242455Y-52257547D01*
X101357664Y-52343793D01*
X101357671Y-52343797D01*
X101492517Y-52394091D01*
X101492516Y-52394091D01*
X101499444Y-52394835D01*
X101552127Y-52400500D01*
X102447872Y-52400499D01*
X102507483Y-52394091D01*
X102642331Y-52343796D01*
X102675690Y-52318823D01*
X102741149Y-52294406D01*
X102809422Y-52309256D01*
X102824304Y-52318819D01*
X102824805Y-52319194D01*
X102866679Y-52375125D01*
X102874500Y-52418465D01*
X102874500Y-54775500D01*
X102854815Y-54842539D01*
X102802011Y-54888294D01*
X102750500Y-54899500D01*
X102137129Y-54899500D01*
X102137123Y-54899501D01*
X102077516Y-54905908D01*
X101942671Y-54956202D01*
X101942664Y-54956206D01*
X101827455Y-55042452D01*
X101827452Y-55042455D01*
X101741206Y-55157664D01*
X101741202Y-55157671D01*
X101690908Y-55292517D01*
X101684501Y-55352116D01*
X101684500Y-55352135D01*
X101684500Y-55849546D01*
X101664815Y-55916585D01*
X101648181Y-55937227D01*
X101067016Y-56518393D01*
X100500269Y-57085140D01*
X100500267Y-57085142D01*
X100473704Y-57111705D01*
X100413142Y-57172266D01*
X100412660Y-57172988D01*
X100381855Y-57219091D01*
X100349479Y-57267544D01*
X100344686Y-57274717D01*
X100344685Y-57274719D01*
X100326946Y-57317547D01*
X100297538Y-57388544D01*
X100297535Y-57388554D01*
X100293170Y-57410498D01*
X100293171Y-57410499D01*
X100275369Y-57500000D01*
X100273500Y-57509394D01*
X100273500Y-57509397D01*
X100273500Y-66960607D01*
X100279307Y-66989806D01*
X100292950Y-67058393D01*
X100292950Y-67058394D01*
X100297534Y-67081444D01*
X100297537Y-67081453D01*
X100344685Y-67195280D01*
X100344687Y-67195283D01*
X100344688Y-67195286D01*
X100358429Y-67215851D01*
X100378914Y-67246507D01*
X100378915Y-67246509D01*
X100413140Y-67297731D01*
X100413141Y-67297732D01*
X100413142Y-67297733D01*
X100500267Y-67384858D01*
X100500268Y-67384858D01*
X100500268Y-67384859D01*
X100561039Y-67445630D01*
X100594524Y-67506953D01*
X100596678Y-67520343D01*
X100614326Y-67688256D01*
X100614327Y-67688259D01*
X100672818Y-67868277D01*
X100672821Y-67868284D01*
X100767467Y-68032216D01*
X100857063Y-68131722D01*
X100894129Y-68172888D01*
X101047265Y-68284148D01*
X101047270Y-68284151D01*
X101220192Y-68361142D01*
X101220197Y-68361144D01*
X101405354Y-68400500D01*
X101405355Y-68400500D01*
X101594644Y-68400500D01*
X101594646Y-68400500D01*
X101779803Y-68361144D01*
X101952730Y-68284151D01*
X102105871Y-68172888D01*
X102232533Y-68032216D01*
X102327179Y-67868284D01*
X102385674Y-67688256D01*
X102405460Y-67500000D01*
X102385674Y-67311744D01*
X102327179Y-67131716D01*
X102232533Y-66967784D01*
X102105871Y-66827112D01*
X102044077Y-66782216D01*
X101952734Y-66715851D01*
X101952729Y-66715848D01*
X101779807Y-66638857D01*
X101779802Y-66638855D01*
X101622719Y-66605467D01*
X101561237Y-66572275D01*
X101527461Y-66511112D01*
X101524500Y-66484177D01*
X101524500Y-57881451D01*
X101544185Y-57814412D01*
X101560815Y-57793774D01*
X102217771Y-57136817D01*
X102279094Y-57103333D01*
X102305452Y-57100499D01*
X102750500Y-57100499D01*
X102817539Y-57120184D01*
X102863294Y-57172988D01*
X102874500Y-57224499D01*
X102874500Y-59217884D01*
X102854815Y-59284923D01*
X102802011Y-59330678D01*
X102793834Y-59334066D01*
X102707669Y-59366203D01*
X102699890Y-59370452D01*
X102698730Y-59368329D01*
X102645418Y-59388208D01*
X102577146Y-59373350D01*
X102570267Y-59368928D01*
X102566086Y-59366645D01*
X102431379Y-59316403D01*
X102431372Y-59316401D01*
X102371844Y-59310000D01*
X102024000Y-59310000D01*
X102024000Y-61690000D01*
X102371828Y-61690000D01*
X102371844Y-61689999D01*
X102431372Y-61683598D01*
X102431376Y-61683597D01*
X102566095Y-61633349D01*
X102573877Y-61629101D01*
X102575138Y-61631412D01*
X102627728Y-61611794D01*
X102696002Y-61626640D01*
X102704131Y-61631864D01*
X102707671Y-61633797D01*
X102842517Y-61684091D01*
X102842516Y-61684091D01*
X102844256Y-61684278D01*
X102902127Y-61690500D01*
X103989353Y-61690499D01*
X104056392Y-61710184D01*
X104102147Y-61762987D01*
X104112674Y-61827460D01*
X104094540Y-62000000D01*
X104114326Y-62188256D01*
X104114327Y-62188259D01*
X104172818Y-62368277D01*
X104172821Y-62368284D01*
X104267467Y-62532216D01*
X104363487Y-62638857D01*
X104367650Y-62643480D01*
X104397880Y-62706471D01*
X104399500Y-62726452D01*
X104399500Y-62913330D01*
X104399499Y-62913348D01*
X104399499Y-63079054D01*
X104399498Y-63079054D01*
X104440423Y-63231785D01*
X104469358Y-63281900D01*
X104469359Y-63281904D01*
X104469360Y-63281904D01*
X104497771Y-63331115D01*
X104519479Y-63368714D01*
X104519481Y-63368717D01*
X104638349Y-63487585D01*
X104638355Y-63487590D01*
X106058221Y-64907456D01*
X106091706Y-64968779D01*
X106094540Y-64995137D01*
X106094540Y-64999997D01*
X106094540Y-65000000D01*
X106114326Y-65188256D01*
X106114327Y-65188259D01*
X106172818Y-65368277D01*
X106172821Y-65368284D01*
X106267467Y-65532216D01*
X106363487Y-65638857D01*
X106394129Y-65672888D01*
X106547265Y-65784148D01*
X106547270Y-65784151D01*
X106720192Y-65861142D01*
X106720197Y-65861144D01*
X106905354Y-65900500D01*
X106905355Y-65900500D01*
X107094644Y-65900500D01*
X107094646Y-65900500D01*
X107279803Y-65861144D01*
X107452730Y-65784151D01*
X107605871Y-65672888D01*
X107732533Y-65532216D01*
X107827179Y-65368284D01*
X107885674Y-65188256D01*
X107905460Y-65000000D01*
X107885674Y-64811744D01*
X107827179Y-64631716D01*
X107732533Y-64467784D01*
X107605871Y-64327112D01*
X107584719Y-64311744D01*
X107452734Y-64215851D01*
X107452729Y-64215848D01*
X107279807Y-64138857D01*
X107279802Y-64138855D01*
X107134001Y-64107865D01*
X107094646Y-64099500D01*
X107094645Y-64099500D01*
X107000097Y-64099500D01*
X106933058Y-64079815D01*
X106912416Y-64063181D01*
X105649397Y-62800162D01*
X105615912Y-62738839D01*
X105620896Y-62669147D01*
X105644925Y-62629513D01*
X105732533Y-62532216D01*
X105827179Y-62368284D01*
X105885674Y-62188256D01*
X105905460Y-62000000D01*
X105885674Y-61811744D01*
X105827179Y-61631716D01*
X105732533Y-61467784D01*
X105605871Y-61327112D01*
X105584719Y-61311744D01*
X105452734Y-61215851D01*
X105452729Y-61215848D01*
X105279807Y-61138857D01*
X105279802Y-61138855D01*
X105134001Y-61107865D01*
X105094646Y-61099500D01*
X104905354Y-61099500D01*
X104865999Y-61107865D01*
X104720198Y-61138855D01*
X104714014Y-61140865D01*
X104713189Y-61138325D01*
X104655661Y-61146028D01*
X104592390Y-61116387D01*
X104555188Y-61057245D01*
X104550499Y-61023467D01*
X104550499Y-60385453D01*
X104570184Y-60318414D01*
X104586818Y-60297772D01*
X104947772Y-59936819D01*
X105009095Y-59903334D01*
X105035453Y-59900500D01*
X105094644Y-59900500D01*
X105094646Y-59900500D01*
X105279803Y-59861144D01*
X105452730Y-59784151D01*
X105605871Y-59672888D01*
X105732533Y-59532216D01*
X105827179Y-59368284D01*
X105885674Y-59188256D01*
X105905460Y-59000000D01*
X105885674Y-58811744D01*
X105827179Y-58631716D01*
X105732533Y-58467784D01*
X105605871Y-58327112D01*
X105605870Y-58327111D01*
X105452734Y-58215851D01*
X105452729Y-58215848D01*
X105279807Y-58138857D01*
X105279802Y-58138855D01*
X105134001Y-58107865D01*
X105094646Y-58099500D01*
X104905354Y-58099500D01*
X104872897Y-58106398D01*
X104720197Y-58138855D01*
X104720192Y-58138857D01*
X104547270Y-58215848D01*
X104547265Y-58215851D01*
X104394129Y-58327111D01*
X104394128Y-58327112D01*
X104341649Y-58385396D01*
X104282162Y-58422044D01*
X104212305Y-58420713D01*
X104154257Y-58381826D01*
X104126448Y-58317729D01*
X104125500Y-58302423D01*
X104125500Y-57224499D01*
X104145185Y-57157460D01*
X104197989Y-57111705D01*
X104249500Y-57100499D01*
X104332871Y-57100499D01*
X104332872Y-57100499D01*
X104392483Y-57094091D01*
X104527331Y-57043796D01*
X104642546Y-56957546D01*
X104728796Y-56842331D01*
X104779091Y-56707483D01*
X104785500Y-56647873D01*
X104785499Y-55469450D01*
X104805184Y-55402412D01*
X104857987Y-55356657D01*
X104927146Y-55346713D01*
X104990702Y-55375738D01*
X104997174Y-55381765D01*
X105831257Y-56215848D01*
X106561038Y-56945629D01*
X106594523Y-57006952D01*
X106596678Y-57020348D01*
X106603489Y-57085143D01*
X106614326Y-57188256D01*
X106614327Y-57188259D01*
X106672818Y-57368277D01*
X106672821Y-57368284D01*
X106767467Y-57532216D01*
X106863487Y-57638857D01*
X106894129Y-57672888D01*
X107047265Y-57784148D01*
X107047270Y-57784151D01*
X107220192Y-57861142D01*
X107220197Y-57861144D01*
X107405354Y-57900500D01*
X107405355Y-57900500D01*
X107594644Y-57900500D01*
X107594646Y-57900500D01*
X107779803Y-57861144D01*
X107952730Y-57784151D01*
X108105871Y-57672888D01*
X108232533Y-57532216D01*
X108327179Y-57368284D01*
X108385674Y-57188256D01*
X108405460Y-57000000D01*
X108385674Y-56811744D01*
X108327179Y-56631716D01*
X108232533Y-56467784D01*
X108105871Y-56327112D01*
X108105870Y-56327111D01*
X107952734Y-56215851D01*
X107952729Y-56215848D01*
X107779807Y-56138857D01*
X107779802Y-56138855D01*
X107618315Y-56104531D01*
X107594646Y-56099500D01*
X107594645Y-56099500D01*
X107535453Y-56099500D01*
X107468414Y-56079815D01*
X107447772Y-56063181D01*
X104886819Y-53502228D01*
X104853334Y-53440905D01*
X104850500Y-53414547D01*
X104850500Y-50713393D01*
X104850499Y-50713389D01*
X104839125Y-50656206D01*
X104826463Y-50592548D01*
X104779311Y-50478714D01*
X104779310Y-50478713D01*
X104779307Y-50478707D01*
X104710858Y-50376267D01*
X104710855Y-50376263D01*
X104623736Y-50289144D01*
X104623732Y-50289141D01*
X104530885Y-50227102D01*
X104486080Y-50173489D01*
X104477373Y-50104164D01*
X104507528Y-50041137D01*
X104566971Y-50004418D01*
X104599776Y-50000000D01*
X114060416Y-50000000D01*
X114127455Y-50019685D01*
X114173210Y-50072489D01*
X114183154Y-50141647D01*
X114154129Y-50205203D01*
X114134727Y-50223266D01*
X114122455Y-50232452D01*
X114122452Y-50232455D01*
X114036206Y-50347664D01*
X114036202Y-50347671D01*
X113985910Y-50482513D01*
X113985909Y-50482517D01*
X113980937Y-50528757D01*
X113954201Y-50593306D01*
X113896809Y-50633154D01*
X113857649Y-50639500D01*
X109253389Y-50639500D01*
X109192971Y-50651518D01*
X109132548Y-50663537D01*
X109132543Y-50663538D01*
X109098546Y-50677620D01*
X109085397Y-50683067D01*
X109018718Y-50710685D01*
X108999571Y-50723479D01*
X108993190Y-50727743D01*
X108993189Y-50727744D01*
X108993188Y-50727743D01*
X108916266Y-50779142D01*
X108916265Y-50779143D01*
X108872704Y-50822705D01*
X108829142Y-50866267D01*
X108829139Y-50866270D01*
X108642227Y-51053181D01*
X108580904Y-51086666D01*
X108554546Y-51089500D01*
X107432129Y-51089500D01*
X107432123Y-51089501D01*
X107372516Y-51095908D01*
X107237671Y-51146202D01*
X107237664Y-51146206D01*
X107122455Y-51232452D01*
X107122452Y-51232455D01*
X107036206Y-51347664D01*
X107036202Y-51347671D01*
X106985908Y-51482517D01*
X106979501Y-51542116D01*
X106979500Y-51542135D01*
X106979500Y-53457870D01*
X106979501Y-53457876D01*
X106985908Y-53517483D01*
X107036202Y-53652328D01*
X107036206Y-53652335D01*
X107122452Y-53767544D01*
X107122455Y-53767547D01*
X107237664Y-53853793D01*
X107237671Y-53853797D01*
X107372517Y-53904091D01*
X107372516Y-53904091D01*
X107379444Y-53904835D01*
X107432127Y-53910500D01*
X108727872Y-53910499D01*
X108787483Y-53904091D01*
X108922331Y-53853796D01*
X109037546Y-53767546D01*
X109123796Y-53652331D01*
X109174091Y-53517483D01*
X109180500Y-53457873D01*
X109180499Y-52750000D01*
X109900000Y-52750000D01*
X109900000Y-53457844D01*
X109906401Y-53517372D01*
X109906403Y-53517379D01*
X109956645Y-53652086D01*
X109956649Y-53652093D01*
X110042809Y-53767187D01*
X110042812Y-53767190D01*
X110157906Y-53853350D01*
X110157913Y-53853354D01*
X110292620Y-53903596D01*
X110292627Y-53903598D01*
X110352155Y-53909999D01*
X110352172Y-53910000D01*
X110750000Y-53910000D01*
X110750000Y-52750000D01*
X111250000Y-52750000D01*
X111250000Y-53910000D01*
X111647828Y-53910000D01*
X111647844Y-53909999D01*
X111707372Y-53903598D01*
X111707379Y-53903596D01*
X111842086Y-53853354D01*
X111842093Y-53853350D01*
X111957187Y-53767190D01*
X111957190Y-53767187D01*
X112043350Y-53652093D01*
X112043354Y-53652086D01*
X112093596Y-53517379D01*
X112093598Y-53517372D01*
X112099999Y-53457844D01*
X112100000Y-53457827D01*
X112100000Y-52750000D01*
X111250000Y-52750000D01*
X110750000Y-52750000D01*
X109900000Y-52750000D01*
X109180499Y-52750000D01*
X109180499Y-52335451D01*
X109200184Y-52268413D01*
X109216818Y-52247771D01*
X109537771Y-51926819D01*
X109599094Y-51893334D01*
X109625452Y-51890500D01*
X109776000Y-51890500D01*
X109843039Y-51910185D01*
X109888794Y-51962989D01*
X109900000Y-52014500D01*
X109900000Y-52250000D01*
X112100000Y-52250000D01*
X112100000Y-52014500D01*
X112119685Y-51947461D01*
X112172489Y-51901706D01*
X112224000Y-51890500D01*
X113855501Y-51890500D01*
X113922540Y-51910185D01*
X113968295Y-51962989D01*
X113979501Y-52014500D01*
X113979501Y-52457876D01*
X113985908Y-52517483D01*
X114036202Y-52652328D01*
X114036206Y-52652335D01*
X114122452Y-52767544D01*
X114122455Y-52767547D01*
X114237664Y-52853793D01*
X114237671Y-52853797D01*
X114373833Y-52904582D01*
X114429767Y-52946453D01*
X114454184Y-53011917D01*
X114454500Y-53020764D01*
X114454500Y-56641611D01*
X114478535Y-56762444D01*
X114478540Y-56762461D01*
X114525685Y-56876280D01*
X114525687Y-56876283D01*
X114525688Y-56876286D01*
X114553796Y-56918352D01*
X114554092Y-56918794D01*
X114554093Y-56918796D01*
X114594140Y-56978731D01*
X114594141Y-56978732D01*
X114594142Y-56978733D01*
X114681267Y-57065858D01*
X114681268Y-57065858D01*
X114688335Y-57072925D01*
X114688334Y-57072925D01*
X114688338Y-57072928D01*
X115061038Y-57445629D01*
X115094523Y-57506952D01*
X115096678Y-57520348D01*
X115106368Y-57612538D01*
X115093799Y-57681268D01*
X115046067Y-57732292D01*
X114983047Y-57749500D01*
X112270943Y-57749500D01*
X112118216Y-57790423D01*
X112118209Y-57790426D01*
X111981290Y-57869475D01*
X111981282Y-57869481D01*
X111869481Y-57981282D01*
X111869475Y-57981290D01*
X111790426Y-58118209D01*
X111790423Y-58118214D01*
X111762239Y-58223401D01*
X111725874Y-58283061D01*
X111663027Y-58313590D01*
X111593651Y-58305295D01*
X111590059Y-58303689D01*
X111519835Y-58270943D01*
X111423663Y-58226097D01*
X111423659Y-58226096D01*
X111423655Y-58226094D01*
X111195413Y-58164938D01*
X111195403Y-58164936D01*
X110960001Y-58144341D01*
X110959998Y-58144341D01*
X110735307Y-58163999D01*
X110666807Y-58150232D01*
X110616624Y-58101617D01*
X110600500Y-58040471D01*
X110600500Y-57726452D01*
X110620185Y-57659413D01*
X110632350Y-57643480D01*
X110636513Y-57638857D01*
X110732533Y-57532216D01*
X110827179Y-57368284D01*
X110885674Y-57188256D01*
X110905460Y-57000000D01*
X110885674Y-56811744D01*
X110827179Y-56631716D01*
X110732533Y-56467784D01*
X110605871Y-56327112D01*
X110605870Y-56327111D01*
X110452734Y-56215851D01*
X110452729Y-56215848D01*
X110279807Y-56138857D01*
X110279802Y-56138855D01*
X110118315Y-56104531D01*
X110094646Y-56099500D01*
X109905354Y-56099500D01*
X109881685Y-56104531D01*
X109720197Y-56138855D01*
X109720192Y-56138857D01*
X109547270Y-56215848D01*
X109547265Y-56215851D01*
X109394129Y-56327111D01*
X109267466Y-56467785D01*
X109172821Y-56631715D01*
X109172818Y-56631722D01*
X109114327Y-56811740D01*
X109114326Y-56811744D01*
X109094540Y-57000000D01*
X109114326Y-57188256D01*
X109114327Y-57188259D01*
X109172818Y-57368277D01*
X109172821Y-57368284D01*
X109267467Y-57532216D01*
X109363487Y-57638857D01*
X109367650Y-57643480D01*
X109397880Y-57706471D01*
X109399500Y-57726452D01*
X109399500Y-58453330D01*
X109399499Y-58453348D01*
X109399499Y-58619054D01*
X109399498Y-58619054D01*
X109440423Y-58771785D01*
X109463492Y-58811740D01*
X109463493Y-58811744D01*
X109519475Y-58908709D01*
X109519481Y-58908717D01*
X109627233Y-59016469D01*
X109660718Y-59077792D01*
X109659327Y-59136243D01*
X109624938Y-59264586D01*
X109624936Y-59264596D01*
X109604341Y-59499999D01*
X109604341Y-59500000D01*
X109624936Y-59735403D01*
X109624938Y-59735413D01*
X109686094Y-59963655D01*
X109686096Y-59963659D01*
X109686097Y-59963663D01*
X109767791Y-60138855D01*
X109785965Y-60177830D01*
X109785967Y-60177834D01*
X109860412Y-60284151D01*
X109919322Y-60368284D01*
X109921501Y-60371395D01*
X109921506Y-60371402D01*
X110088597Y-60538493D01*
X110088603Y-60538498D01*
X110274158Y-60668425D01*
X110317783Y-60723002D01*
X110324977Y-60792500D01*
X110293454Y-60854855D01*
X110274158Y-60871575D01*
X110088597Y-61001505D01*
X109921505Y-61168597D01*
X109785965Y-61362169D01*
X109785964Y-61362171D01*
X109686098Y-61576335D01*
X109686094Y-61576344D01*
X109624938Y-61804586D01*
X109624936Y-61804596D01*
X109606777Y-62012158D01*
X109604341Y-62040000D01*
X109623999Y-62264693D01*
X109610234Y-62333192D01*
X109561619Y-62383375D01*
X109500472Y-62399500D01*
X108726258Y-62399500D01*
X108659219Y-62379815D01*
X108634109Y-62358473D01*
X108605871Y-62327112D01*
X108605864Y-62327106D01*
X108452734Y-62215851D01*
X108452729Y-62215848D01*
X108279807Y-62138857D01*
X108279802Y-62138855D01*
X108134001Y-62107865D01*
X108094646Y-62099500D01*
X107905354Y-62099500D01*
X107872897Y-62106398D01*
X107720197Y-62138855D01*
X107720192Y-62138857D01*
X107547270Y-62215848D01*
X107547265Y-62215851D01*
X107394129Y-62327111D01*
X107267466Y-62467785D01*
X107172821Y-62631715D01*
X107172818Y-62631722D01*
X107118089Y-62800162D01*
X107114326Y-62811744D01*
X107094540Y-63000000D01*
X107114326Y-63188256D01*
X107114327Y-63188259D01*
X107172818Y-63368277D01*
X107172821Y-63368284D01*
X107267467Y-63532216D01*
X107370581Y-63646735D01*
X107394129Y-63672888D01*
X107547265Y-63784148D01*
X107547270Y-63784151D01*
X107720192Y-63861142D01*
X107720197Y-63861144D01*
X107905354Y-63900500D01*
X107905355Y-63900500D01*
X108094644Y-63900500D01*
X108094646Y-63900500D01*
X108279803Y-63861144D01*
X108452730Y-63784151D01*
X108605871Y-63672888D01*
X108634109Y-63641527D01*
X108693595Y-63604879D01*
X108726258Y-63600500D01*
X109192324Y-63600500D01*
X109259363Y-63620185D01*
X109305118Y-63672989D01*
X109315062Y-63742147D01*
X109299711Y-63786500D01*
X109282804Y-63815784D01*
X109282803Y-63815785D01*
X109250425Y-63871863D01*
X109250424Y-63871864D01*
X109242751Y-63900500D01*
X109209499Y-64024597D01*
X109209499Y-64024599D01*
X109209499Y-64192700D01*
X109209500Y-64192713D01*
X109209500Y-67050180D01*
X109189815Y-67117219D01*
X109137011Y-67162974D01*
X109067853Y-67172918D01*
X109035065Y-67163460D01*
X108979802Y-67138855D01*
X108834001Y-67107865D01*
X108794646Y-67099500D01*
X108605354Y-67099500D01*
X108572897Y-67106398D01*
X108420197Y-67138855D01*
X108420192Y-67138857D01*
X108247270Y-67215848D01*
X108247265Y-67215851D01*
X108094129Y-67327111D01*
X107967466Y-67467785D01*
X107872821Y-67631715D01*
X107872818Y-67631722D01*
X107814327Y-67811740D01*
X107814326Y-67811744D01*
X107794540Y-68000000D01*
X107814326Y-68188256D01*
X107814327Y-68188259D01*
X107872818Y-68368277D01*
X107872821Y-68368284D01*
X107967467Y-68532216D01*
X108010326Y-68579815D01*
X108042650Y-68615715D01*
X108072880Y-68678706D01*
X108074500Y-68698687D01*
X108074500Y-76947547D01*
X108054815Y-77014586D01*
X108038181Y-77035228D01*
X103365681Y-81707728D01*
X103304358Y-81741213D01*
X103234666Y-81736229D01*
X103178733Y-81694357D01*
X103154316Y-81628893D01*
X103154000Y-81620047D01*
X103154000Y-81298172D01*
X103153999Y-81298155D01*
X103147598Y-81238627D01*
X103147596Y-81238620D01*
X103097354Y-81103913D01*
X103097350Y-81103906D01*
X103011190Y-80988812D01*
X102912066Y-80914607D01*
X102870196Y-80858673D01*
X102865212Y-80788981D01*
X102887422Y-80740618D01*
X102985781Y-80610370D01*
X103081151Y-80418840D01*
X103081151Y-80418837D01*
X103081153Y-80418835D01*
X103122650Y-80272987D01*
X103139704Y-80213048D01*
X103159446Y-80000000D01*
X103154102Y-79942335D01*
X103139704Y-79786952D01*
X103139703Y-79786949D01*
X103081153Y-79581164D01*
X103081150Y-79581158D01*
X103031186Y-79480816D01*
X102985781Y-79389630D01*
X102856841Y-79218886D01*
X102698722Y-79074742D01*
X102698716Y-79074738D01*
X102698713Y-79074736D01*
X102516813Y-78962108D01*
X102516807Y-78962106D01*
X102317297Y-78884815D01*
X102317292Y-78884814D01*
X102317286Y-78884812D01*
X102295464Y-78880733D01*
X102233183Y-78849065D01*
X102197911Y-78788752D01*
X102194250Y-78758845D01*
X102194250Y-74550096D01*
X102213935Y-74483057D01*
X102230564Y-74462420D01*
X105769256Y-70923727D01*
X105769261Y-70923724D01*
X105779464Y-70913520D01*
X105779466Y-70913520D01*
X105891270Y-70801716D01*
X105952485Y-70695688D01*
X105970327Y-70664785D01*
X106011250Y-70512057D01*
X106011250Y-70353943D01*
X106011250Y-66999810D01*
X106011251Y-66999797D01*
X106011251Y-66831694D01*
X105983556Y-66728338D01*
X105970327Y-66678966D01*
X105935289Y-66618277D01*
X105891274Y-66542040D01*
X105891268Y-66542032D01*
X105691779Y-66342543D01*
X105658294Y-66281220D01*
X105655460Y-66254862D01*
X105655460Y-66250002D01*
X105655313Y-66248599D01*
X105635674Y-66061744D01*
X105577179Y-65881716D01*
X105482533Y-65717784D01*
X105355871Y-65577112D01*
X105355870Y-65577111D01*
X105202734Y-65465851D01*
X105202729Y-65465848D01*
X105029807Y-65388857D01*
X105029802Y-65388855D01*
X104884001Y-65357865D01*
X104844646Y-65349500D01*
X104844645Y-65349500D01*
X104750097Y-65349500D01*
X104683058Y-65329815D01*
X104662416Y-65313181D01*
X104586818Y-65237583D01*
X104553333Y-65176260D01*
X104550499Y-65149902D01*
X104550499Y-64262129D01*
X104550498Y-64262123D01*
X104544091Y-64202516D01*
X104493797Y-64067671D01*
X104493793Y-64067664D01*
X104407547Y-63952455D01*
X104407544Y-63952452D01*
X104292335Y-63866206D01*
X104292328Y-63866202D01*
X104157482Y-63815908D01*
X104157483Y-63815908D01*
X104097883Y-63809501D01*
X104097881Y-63809500D01*
X104097873Y-63809500D01*
X104097864Y-63809500D01*
X102902129Y-63809500D01*
X102902123Y-63809501D01*
X102842516Y-63815908D01*
X102707671Y-63866202D01*
X102699890Y-63870452D01*
X102698730Y-63868329D01*
X102645418Y-63888208D01*
X102577146Y-63873350D01*
X102570267Y-63868928D01*
X102566086Y-63866645D01*
X102431379Y-63816403D01*
X102431372Y-63816401D01*
X102371844Y-63810000D01*
X102024000Y-63810000D01*
X102024000Y-66190000D01*
X102371828Y-66190000D01*
X102371844Y-66189999D01*
X102431372Y-66183598D01*
X102431376Y-66183597D01*
X102566095Y-66133349D01*
X102573877Y-66129101D01*
X102575138Y-66131412D01*
X102627728Y-66111794D01*
X102696002Y-66126640D01*
X102704131Y-66131864D01*
X102707671Y-66133797D01*
X102842517Y-66184091D01*
X102842516Y-66184091D01*
X102849444Y-66184835D01*
X102902127Y-66190500D01*
X103726636Y-66190499D01*
X103793675Y-66210183D01*
X103839430Y-66262987D01*
X103849956Y-66301534D01*
X103864326Y-66438256D01*
X103864327Y-66438259D01*
X103922818Y-66618277D01*
X103922821Y-66618284D01*
X104017467Y-66782216D01*
X104144129Y-66922888D01*
X104297265Y-67034148D01*
X104297270Y-67034151D01*
X104470192Y-67111142D01*
X104470197Y-67111144D01*
X104655354Y-67150500D01*
X104686250Y-67150500D01*
X104753289Y-67170185D01*
X104799044Y-67222989D01*
X104810250Y-67274500D01*
X104810250Y-70132902D01*
X104790565Y-70199941D01*
X104773931Y-70220583D01*
X101405931Y-73588583D01*
X101344608Y-73622068D01*
X101274916Y-73617084D01*
X101218983Y-73575212D01*
X101194566Y-73509748D01*
X101194250Y-73500902D01*
X101194250Y-72585452D01*
X101213935Y-72518413D01*
X101230569Y-72497771D01*
X102079607Y-71648733D01*
X102112504Y-71599500D01*
X102148062Y-71546285D01*
X102195213Y-71432451D01*
X102219250Y-71311607D01*
X102219250Y-71188393D01*
X102195213Y-71067549D01*
X102195210Y-71067542D01*
X102195209Y-71067538D01*
X102148064Y-70953718D01*
X102148059Y-70953709D01*
X102079610Y-70851272D01*
X102079607Y-70851267D01*
X101992483Y-70764143D01*
X101972667Y-70750902D01*
X101890040Y-70695690D01*
X101890031Y-70695685D01*
X101776211Y-70648540D01*
X101776194Y-70648535D01*
X101655361Y-70624500D01*
X101655357Y-70624500D01*
X101532143Y-70624500D01*
X101532138Y-70624500D01*
X101411307Y-70648535D01*
X101411303Y-70648536D01*
X101411299Y-70648537D01*
X101297470Y-70695686D01*
X101297463Y-70695689D01*
X101195016Y-70764143D01*
X100211681Y-71747478D01*
X100150358Y-71780963D01*
X100080666Y-71775979D01*
X100024733Y-71734107D01*
X100000316Y-71668643D01*
X100000000Y-71659797D01*
X100000000Y-50124000D01*
X100019685Y-50056961D01*
X100072489Y-50011206D01*
X100124000Y-50000000D01*
X102350224Y-50000000D01*
X102417263Y-50019685D01*
G37*
%TD.AperFunction*%
%TA.AperFunction,Conductor*%
G36*
X114956442Y-64349685D02*
G01*
X114977084Y-64366319D01*
X118107284Y-67496519D01*
X118140769Y-67557842D01*
X118143603Y-67584200D01*
X118143603Y-69399718D01*
X118123918Y-69466757D01*
X118084832Y-69500625D01*
X118110156Y-69515569D01*
X118141580Y-69577974D01*
X118143603Y-69600281D01*
X118143603Y-71175121D01*
X121456328Y-71175121D01*
X121456328Y-71144925D01*
X121476013Y-71077886D01*
X121528817Y-71032131D01*
X121597975Y-71022187D01*
X121661531Y-71051212D01*
X121668007Y-71057242D01*
X124091284Y-73480520D01*
X124091286Y-73480521D01*
X124091290Y-73480524D01*
X124228209Y-73559573D01*
X124228216Y-73559577D01*
X124380943Y-73600501D01*
X124380945Y-73600501D01*
X124546654Y-73600501D01*
X124546670Y-73600500D01*
X128241404Y-73600500D01*
X128308443Y-73620185D01*
X128354198Y-73672989D01*
X128364343Y-73708316D01*
X128364477Y-73709339D01*
X128364479Y-73709345D01*
X128372226Y-73728048D01*
X128379695Y-73797517D01*
X128348419Y-73859996D01*
X128288330Y-73895648D01*
X128257665Y-73899500D01*
X117726258Y-73899500D01*
X117659219Y-73879815D01*
X117634109Y-73858473D01*
X117605871Y-73827112D01*
X117605864Y-73827106D01*
X117452734Y-73715851D01*
X117452729Y-73715848D01*
X117279807Y-73638857D01*
X117279802Y-73638855D01*
X117134001Y-73607865D01*
X117094646Y-73599500D01*
X117024500Y-73599500D01*
X116957461Y-73579815D01*
X116911706Y-73527011D01*
X116900500Y-73475500D01*
X116900500Y-71885279D01*
X116920185Y-71818240D01*
X116951615Y-71784961D01*
X117003206Y-71747478D01*
X117105871Y-71672888D01*
X117232533Y-71532216D01*
X117327179Y-71368284D01*
X117385674Y-71188256D01*
X117405460Y-71000000D01*
X117385674Y-70811744D01*
X117327179Y-70631716D01*
X117262077Y-70518957D01*
X117245605Y-70451058D01*
X117268458Y-70385031D01*
X117319028Y-70343679D01*
X117452730Y-70284151D01*
X117605871Y-70172888D01*
X117732533Y-70032216D01*
X117827179Y-69868284D01*
X117885674Y-69688256D01*
X117896282Y-69587318D01*
X117922866Y-69522705D01*
X117954366Y-69500722D01*
X117938400Y-69493431D01*
X117900626Y-69434653D01*
X117896283Y-69412685D01*
X117885674Y-69311744D01*
X117827179Y-69131716D01*
X117732533Y-68967784D01*
X117605871Y-68827112D01*
X117605870Y-68827111D01*
X117452734Y-68715851D01*
X117452729Y-68715848D01*
X117279807Y-68638857D01*
X117279802Y-68638855D01*
X117134001Y-68607865D01*
X117094646Y-68599500D01*
X117094645Y-68599500D01*
X117076593Y-68599500D01*
X117009554Y-68579815D01*
X116988912Y-68563181D01*
X116854956Y-68429225D01*
X116821471Y-68367902D01*
X116824705Y-68303228D01*
X116850699Y-68223231D01*
X116870485Y-68034975D01*
X116850699Y-67846719D01*
X116792204Y-67666691D01*
X116697558Y-67502759D01*
X116570896Y-67362087D01*
X116569598Y-67361144D01*
X116417759Y-67250826D01*
X116417754Y-67250823D01*
X116244832Y-67173832D01*
X116244827Y-67173830D01*
X116091498Y-67141240D01*
X116059671Y-67134475D01*
X115870379Y-67134475D01*
X115794987Y-67150500D01*
X115680432Y-67174849D01*
X115610765Y-67169533D01*
X115566970Y-67141240D01*
X115154068Y-66728338D01*
X115154065Y-66728334D01*
X115154065Y-66728335D01*
X115146998Y-66721268D01*
X115146998Y-66721267D01*
X115059873Y-66634142D01*
X115059872Y-66634141D01*
X115059871Y-66634140D01*
X115008028Y-66599500D01*
X114957427Y-66565689D01*
X114957426Y-66565688D01*
X114957423Y-66565686D01*
X114957420Y-66565685D01*
X114876932Y-66532347D01*
X114843592Y-66518537D01*
X114843586Y-66518535D01*
X114756949Y-66501302D01*
X114695038Y-66468917D01*
X114677438Y-66446396D01*
X114677140Y-66446605D01*
X114538494Y-66248597D01*
X114371402Y-66081506D01*
X114371401Y-66081505D01*
X114185405Y-65951269D01*
X114141781Y-65896692D01*
X114134588Y-65827193D01*
X114166110Y-65764839D01*
X114185405Y-65748119D01*
X114371082Y-65618105D01*
X114538105Y-65451082D01*
X114673600Y-65257578D01*
X114773429Y-65043492D01*
X114773432Y-65043486D01*
X114830636Y-64830000D01*
X113933012Y-64830000D01*
X113965925Y-64772993D01*
X114000000Y-64645826D01*
X114000000Y-64514174D01*
X113965925Y-64387007D01*
X113933012Y-64330000D01*
X114889403Y-64330000D01*
X114956442Y-64349685D01*
G37*
%TD.AperFunction*%
%TA.AperFunction,Conductor*%
G36*
X129960948Y-63569685D02*
G01*
X130006703Y-63622489D01*
X130016647Y-63691647D01*
X129987622Y-63755203D01*
X129966794Y-63774318D01*
X129894129Y-63827111D01*
X129767466Y-63967785D01*
X129672821Y-64131715D01*
X129672818Y-64131722D01*
X129618987Y-64297399D01*
X129614326Y-64311744D01*
X129594540Y-64500000D01*
X129614326Y-64688256D01*
X129614327Y-64688259D01*
X129672818Y-64868277D01*
X129672821Y-64868284D01*
X129767467Y-65032216D01*
X129816650Y-65086839D01*
X129867650Y-65143480D01*
X129897880Y-65206471D01*
X129899500Y-65226452D01*
X129899500Y-71326000D01*
X129879815Y-71393039D01*
X129827011Y-71438794D01*
X129775500Y-71450000D01*
X129606425Y-71450000D01*
X129558972Y-71440561D01*
X129511610Y-71420943D01*
X129434472Y-71388991D01*
X129365364Y-71379892D01*
X129301469Y-71351626D01*
X129293870Y-71344635D01*
X129186819Y-71237584D01*
X129153334Y-71176261D01*
X129150500Y-71149903D01*
X129150500Y-63749000D01*
X129170185Y-63681961D01*
X129222989Y-63636206D01*
X129274500Y-63625000D01*
X129324363Y-63625000D01*
X129324377Y-63624999D01*
X129434341Y-63610521D01*
X129434342Y-63610521D01*
X129557666Y-63559439D01*
X129605119Y-63550000D01*
X129893909Y-63550000D01*
X129960948Y-63569685D01*
G37*
%TD.AperFunction*%
%TA.AperFunction,Conductor*%
G36*
X113034075Y-64387007D02*
G01*
X113000000Y-64514174D01*
X113000000Y-64645826D01*
X113034075Y-64772993D01*
X113066988Y-64830000D01*
X111393012Y-64830000D01*
X111425925Y-64772993D01*
X111460000Y-64645826D01*
X111460000Y-64514174D01*
X111425925Y-64387007D01*
X111393012Y-64330000D01*
X113066988Y-64330000D01*
X113034075Y-64387007D01*
G37*
%TD.AperFunction*%
%TA.AperFunction,Conductor*%
G36*
X139142539Y-55769685D02*
G01*
X139188294Y-55822489D01*
X139199500Y-55874000D01*
X139199500Y-57651773D01*
X139179815Y-57718812D01*
X139127011Y-57764567D01*
X139057853Y-57774511D01*
X139002616Y-57752092D01*
X138952733Y-57715851D01*
X138952729Y-57715848D01*
X138779807Y-57638857D01*
X138779802Y-57638855D01*
X138616071Y-57604054D01*
X138594646Y-57599500D01*
X138405354Y-57599500D01*
X138383929Y-57604054D01*
X138220197Y-57638855D01*
X138220192Y-57638857D01*
X138047270Y-57715848D01*
X138047265Y-57715851D01*
X137894129Y-57827111D01*
X137767466Y-57967785D01*
X137672821Y-58131715D01*
X137672818Y-58131722D01*
X137616943Y-58303689D01*
X137614326Y-58311744D01*
X137599445Y-58453330D01*
X137594540Y-58500000D01*
X137614326Y-58688256D01*
X137614328Y-58688262D01*
X137643037Y-58776623D01*
X137645032Y-58846464D01*
X137612787Y-58902621D01*
X137527227Y-58988181D01*
X137465904Y-59021666D01*
X137439546Y-59024500D01*
X136902129Y-59024500D01*
X136902123Y-59024501D01*
X136842516Y-59030908D01*
X136707671Y-59081202D01*
X136707664Y-59081206D01*
X136592455Y-59167452D01*
X136592452Y-59167455D01*
X136506206Y-59282664D01*
X136506202Y-59282671D01*
X136455908Y-59417517D01*
X136450504Y-59467785D01*
X136449500Y-59477127D01*
X136449500Y-59911984D01*
X136449501Y-60250500D01*
X136429817Y-60317539D01*
X136377013Y-60363294D01*
X136325501Y-60374500D01*
X136203748Y-60374500D01*
X136136709Y-60354815D01*
X136111600Y-60333474D01*
X136105873Y-60327114D01*
X136105869Y-60327110D01*
X135952734Y-60215851D01*
X135952729Y-60215848D01*
X135779807Y-60138857D01*
X135779802Y-60138855D01*
X135634001Y-60107865D01*
X135594646Y-60099500D01*
X135405354Y-60099500D01*
X135372897Y-60106398D01*
X135220197Y-60138855D01*
X135220192Y-60138857D01*
X135047270Y-60215848D01*
X135047265Y-60215851D01*
X134894129Y-60327111D01*
X134767466Y-60467785D01*
X134672821Y-60631715D01*
X134672818Y-60631722D01*
X134614327Y-60811740D01*
X134614326Y-60811744D01*
X134594540Y-61000000D01*
X134614326Y-61188256D01*
X134614327Y-61188259D01*
X134674829Y-61374465D01*
X134673589Y-61374867D01*
X134681944Y-61437166D01*
X134652317Y-61500444D01*
X134634875Y-61516724D01*
X134631282Y-61519480D01*
X134612615Y-61538148D01*
X134551292Y-61571632D01*
X134481600Y-61566646D01*
X134425667Y-61524773D01*
X134401616Y-61463429D01*
X134385674Y-61311744D01*
X134327179Y-61131716D01*
X134232533Y-60967784D01*
X134105871Y-60827112D01*
X134105863Y-60827106D01*
X133952734Y-60715851D01*
X133952729Y-60715848D01*
X133779807Y-60638857D01*
X133779802Y-60638855D01*
X133634001Y-60607865D01*
X133594646Y-60599500D01*
X133405354Y-60599500D01*
X133372897Y-60606398D01*
X133220197Y-60638855D01*
X133220192Y-60638857D01*
X133047270Y-60715848D01*
X133047265Y-60715851D01*
X132894135Y-60827106D01*
X132894128Y-60827112D01*
X132865891Y-60858473D01*
X132806405Y-60895121D01*
X132773742Y-60899500D01*
X131384508Y-60899500D01*
X131337058Y-60890062D01*
X131334475Y-60888992D01*
X131334470Y-60888990D01*
X131224401Y-60874500D01*
X130775596Y-60874500D01*
X130665536Y-60888988D01*
X130665527Y-60888991D01*
X130541028Y-60940561D01*
X130493575Y-60950000D01*
X130300000Y-60950000D01*
X130300000Y-61178929D01*
X130290561Y-61226381D01*
X130263992Y-61290524D01*
X130263990Y-61290529D01*
X130249500Y-61400598D01*
X130249500Y-61599403D01*
X130263989Y-61709468D01*
X130266094Y-61717322D01*
X130262814Y-61718200D01*
X130268581Y-61772073D01*
X130265517Y-61782522D01*
X130266095Y-61782677D01*
X130263990Y-61790529D01*
X130249500Y-61900598D01*
X130249500Y-62099403D01*
X130263989Y-62209468D01*
X130266094Y-62217322D01*
X130262814Y-62218200D01*
X130268581Y-62272073D01*
X130265517Y-62282522D01*
X130266095Y-62282677D01*
X130263990Y-62290529D01*
X130250608Y-62392185D01*
X130222342Y-62456082D01*
X130164017Y-62494553D01*
X130127669Y-62500000D01*
X129972330Y-62500000D01*
X129905291Y-62480315D01*
X129859536Y-62427511D01*
X129849391Y-62392184D01*
X129844953Y-62358473D01*
X129836009Y-62290528D01*
X129836008Y-62290525D01*
X129833905Y-62282674D01*
X129837207Y-62281789D01*
X129831392Y-62228075D01*
X129834501Y-62217485D01*
X129833905Y-62217326D01*
X129836008Y-62209475D01*
X129836008Y-62209474D01*
X129836009Y-62209472D01*
X129850500Y-62099401D01*
X129850499Y-61900600D01*
X129836009Y-61790528D01*
X129836008Y-61790525D01*
X129833905Y-61782674D01*
X129837207Y-61781789D01*
X129831392Y-61728075D01*
X129834501Y-61717485D01*
X129833905Y-61717326D01*
X129836008Y-61709475D01*
X129836008Y-61709474D01*
X129836009Y-61709472D01*
X129850500Y-61599401D01*
X129850499Y-61400600D01*
X129850499Y-61400598D01*
X129850499Y-61400596D01*
X129836011Y-61290536D01*
X129836009Y-61290529D01*
X129836009Y-61290528D01*
X129828145Y-61271543D01*
X129809439Y-61226381D01*
X129800000Y-61178929D01*
X129800000Y-60932677D01*
X129819685Y-60865638D01*
X129872489Y-60819883D01*
X129873359Y-60819489D01*
X129952730Y-60784151D01*
X130105871Y-60672888D01*
X130232533Y-60532216D01*
X130327179Y-60368284D01*
X130385674Y-60188256D01*
X130405460Y-60000000D01*
X130385674Y-59811744D01*
X130327179Y-59631716D01*
X130232533Y-59467784D01*
X130111146Y-59332971D01*
X130080917Y-59269981D01*
X130089542Y-59200646D01*
X130111144Y-59167030D01*
X130134110Y-59141525D01*
X130193596Y-59104879D01*
X130226258Y-59100500D01*
X130512292Y-59100500D01*
X130579331Y-59120185D01*
X130625086Y-59172989D01*
X130635030Y-59242147D01*
X130630223Y-59262818D01*
X130614893Y-59310000D01*
X130614326Y-59311744D01*
X130594540Y-59500000D01*
X130614326Y-59688256D01*
X130614327Y-59688259D01*
X130672818Y-59868277D01*
X130672821Y-59868284D01*
X130767467Y-60032216D01*
X130863487Y-60138857D01*
X130894129Y-60172888D01*
X131047265Y-60284148D01*
X131047270Y-60284151D01*
X131220192Y-60361142D01*
X131220197Y-60361144D01*
X131405354Y-60400500D01*
X131405355Y-60400500D01*
X131594644Y-60400500D01*
X131594646Y-60400500D01*
X131779803Y-60361144D01*
X131952730Y-60284151D01*
X132105871Y-60172888D01*
X132232533Y-60032216D01*
X132274112Y-59960197D01*
X132324676Y-59911984D01*
X132393283Y-59898760D01*
X132403006Y-59900253D01*
X132405353Y-59900500D01*
X132405354Y-59900500D01*
X132594644Y-59900500D01*
X132594646Y-59900500D01*
X132779803Y-59861144D01*
X132949566Y-59785559D01*
X133018813Y-59776275D01*
X133050430Y-59785557D01*
X133220197Y-59861144D01*
X133405354Y-59900500D01*
X133405355Y-59900500D01*
X133594644Y-59900500D01*
X133594646Y-59900500D01*
X133779803Y-59861144D01*
X133952730Y-59784151D01*
X134105871Y-59672888D01*
X134232533Y-59532216D01*
X134327179Y-59368284D01*
X134385674Y-59188256D01*
X134405460Y-59000000D01*
X134385674Y-58811744D01*
X134327179Y-58631716D01*
X134232533Y-58467784D01*
X134105871Y-58327112D01*
X134105870Y-58327111D01*
X133952734Y-58215851D01*
X133952729Y-58215848D01*
X133779807Y-58138857D01*
X133779802Y-58138855D01*
X133634001Y-58107865D01*
X133594646Y-58099500D01*
X133549063Y-58099500D01*
X133482024Y-58079815D01*
X133436269Y-58027011D01*
X133426325Y-57957853D01*
X133450690Y-57900010D01*
X133455515Y-57893720D01*
X133455520Y-57893716D01*
X133518777Y-57784151D01*
X133534577Y-57756785D01*
X133575501Y-57604057D01*
X133575501Y-57445943D01*
X133575501Y-57438348D01*
X133575500Y-57438330D01*
X133575500Y-57329500D01*
X133595185Y-57262461D01*
X133647989Y-57216706D01*
X133699500Y-57205500D01*
X133960469Y-57205500D01*
X133982264Y-57202882D01*
X134047652Y-57195030D01*
X134186384Y-57140321D01*
X134305212Y-57050212D01*
X134395321Y-56931384D01*
X134450030Y-56792652D01*
X134460500Y-56705468D01*
X134460500Y-56490097D01*
X134480185Y-56423058D01*
X134496819Y-56402416D01*
X134767519Y-56131716D01*
X135060471Y-55838763D01*
X135121792Y-55805280D01*
X135191483Y-55810264D01*
X135247417Y-55852135D01*
X135271834Y-55917600D01*
X135256982Y-55985873D01*
X135255538Y-55988445D01*
X135172820Y-56131718D01*
X135172818Y-56131722D01*
X135119472Y-56295905D01*
X135114326Y-56311744D01*
X135094540Y-56500000D01*
X135114326Y-56688256D01*
X135114327Y-56688259D01*
X135172818Y-56868277D01*
X135172821Y-56868284D01*
X135267467Y-57032216D01*
X135375399Y-57152086D01*
X135394129Y-57172888D01*
X135547265Y-57284148D01*
X135547270Y-57284151D01*
X135720192Y-57361142D01*
X135720197Y-57361144D01*
X135905354Y-57400500D01*
X135905355Y-57400500D01*
X136094644Y-57400500D01*
X136094646Y-57400500D01*
X136279803Y-57361144D01*
X136452730Y-57284151D01*
X136500861Y-57249180D01*
X136566665Y-57225701D01*
X136573711Y-57225499D01*
X137647872Y-57225499D01*
X137707483Y-57219091D01*
X137842331Y-57168796D01*
X137957546Y-57082546D01*
X137957548Y-57082542D01*
X137962676Y-57077416D01*
X138023999Y-57043931D01*
X138093691Y-57048915D01*
X138138038Y-57077416D01*
X138142812Y-57082190D01*
X138257906Y-57168350D01*
X138257913Y-57168354D01*
X138392620Y-57218596D01*
X138392627Y-57218598D01*
X138452155Y-57224999D01*
X138452172Y-57225000D01*
X138750000Y-57225000D01*
X138750000Y-55874000D01*
X138769685Y-55806961D01*
X138822489Y-55761206D01*
X138874000Y-55750000D01*
X139075500Y-55750000D01*
X139142539Y-55769685D01*
G37*
%TD.AperFunction*%
%TA.AperFunction,Conductor*%
G36*
X117048289Y-50019685D02*
G01*
X117094044Y-50072489D01*
X117103988Y-50141647D01*
X117074963Y-50205203D01*
X117055561Y-50223267D01*
X117042809Y-50232813D01*
X116956649Y-50347906D01*
X116956645Y-50347913D01*
X116906403Y-50482620D01*
X116906401Y-50482627D01*
X116900000Y-50542155D01*
X116900000Y-51250000D01*
X119100000Y-51250000D01*
X119100000Y-50542172D01*
X119099999Y-50542155D01*
X119093598Y-50482627D01*
X119093596Y-50482620D01*
X119043354Y-50347913D01*
X119043350Y-50347906D01*
X118957190Y-50232813D01*
X118944439Y-50223267D01*
X118902568Y-50167333D01*
X118897584Y-50097641D01*
X118931069Y-50036318D01*
X118992393Y-50002834D01*
X119018750Y-50000000D01*
X139876000Y-50000000D01*
X139943039Y-50019685D01*
X139988794Y-50072489D01*
X140000000Y-50124000D01*
X140000000Y-51726372D01*
X139980315Y-51793411D01*
X139927511Y-51839166D01*
X139858353Y-51849110D01*
X139801689Y-51825639D01*
X139742331Y-51781204D01*
X139742328Y-51781202D01*
X139607482Y-51730908D01*
X139607483Y-51730908D01*
X139547883Y-51724501D01*
X139547881Y-51724500D01*
X139547873Y-51724500D01*
X139547865Y-51724500D01*
X138612197Y-51724500D01*
X138545158Y-51704815D01*
X138499403Y-51652011D01*
X138497636Y-51647954D01*
X138496704Y-51645705D01*
X138479311Y-51603714D01*
X138479309Y-51603711D01*
X138479307Y-51603707D01*
X138410858Y-51501267D01*
X138410855Y-51501263D01*
X138323736Y-51414144D01*
X138323732Y-51414141D01*
X138221292Y-51345692D01*
X138221283Y-51345687D01*
X138107454Y-51298538D01*
X138107455Y-51298538D01*
X138107452Y-51298537D01*
X138107448Y-51298536D01*
X138107444Y-51298535D01*
X137986610Y-51274500D01*
X137986606Y-51274500D01*
X135992740Y-51274500D01*
X135992720Y-51274499D01*
X135986606Y-51274499D01*
X135863393Y-51274499D01*
X135762596Y-51294548D01*
X135762591Y-51294548D01*
X135742547Y-51298536D01*
X135742540Y-51298538D01*
X135696652Y-51317547D01*
X135696650Y-51317548D01*
X135628713Y-51345688D01*
X135628711Y-51345689D01*
X135526266Y-51414141D01*
X135526262Y-51414144D01*
X134660755Y-52279652D01*
X134599432Y-52313137D01*
X134529740Y-52308153D01*
X134473807Y-52266281D01*
X134453162Y-52214753D01*
X134451977Y-52215053D01*
X134450028Y-52207342D01*
X134395322Y-52068619D01*
X134395321Y-52068616D01*
X134305212Y-51949788D01*
X134227028Y-51890500D01*
X134186386Y-51859680D01*
X134186380Y-51859677D01*
X134047657Y-51804971D01*
X134047649Y-51804969D01*
X133960469Y-51794500D01*
X133960468Y-51794500D01*
X131989532Y-51794500D01*
X131989531Y-51794500D01*
X131902350Y-51804969D01*
X131902342Y-51804971D01*
X131763619Y-51859677D01*
X131763613Y-51859680D01*
X131644788Y-51949788D01*
X131554680Y-52068613D01*
X131554677Y-52068619D01*
X131499971Y-52207342D01*
X131499971Y-52207343D01*
X131499970Y-52207346D01*
X131499970Y-52207348D01*
X131496134Y-52239287D01*
X131468599Y-52303498D01*
X131410716Y-52342631D01*
X131373020Y-52348500D01*
X129626476Y-52348500D01*
X129559437Y-52328815D01*
X129513682Y-52276011D01*
X129503361Y-52239285D01*
X129499540Y-52207469D01*
X129499540Y-52207468D01*
X129444880Y-52068860D01*
X129354855Y-51950144D01*
X129236139Y-51860119D01*
X129097531Y-51805459D01*
X129010434Y-51795000D01*
X128275000Y-51795000D01*
X128275000Y-52721000D01*
X128255315Y-52788039D01*
X128202511Y-52833794D01*
X128151000Y-52845000D01*
X126540000Y-52845000D01*
X126540000Y-52895434D01*
X126550459Y-52982530D01*
X126550459Y-52982531D01*
X126605118Y-53121137D01*
X126630540Y-53154660D01*
X126655363Y-53219972D01*
X126640935Y-53288336D01*
X126630542Y-53304508D01*
X126604679Y-53338614D01*
X126604677Y-53338619D01*
X126549971Y-53477342D01*
X126549969Y-53477350D01*
X126539500Y-53564531D01*
X126539500Y-54165468D01*
X126549969Y-54252649D01*
X126549971Y-54252657D01*
X126604677Y-54391380D01*
X126604677Y-54391381D01*
X126630541Y-54425488D01*
X126655363Y-54490799D01*
X126640934Y-54559163D01*
X126630542Y-54575334D01*
X126605119Y-54608861D01*
X126550459Y-54747468D01*
X126550459Y-54747469D01*
X126540000Y-54834565D01*
X126540000Y-54885000D01*
X128151000Y-54885000D01*
X128218039Y-54904685D01*
X128263794Y-54957489D01*
X128275000Y-55009000D01*
X128275000Y-55261000D01*
X128255315Y-55328039D01*
X128202511Y-55373794D01*
X128151000Y-55385000D01*
X126540000Y-55385000D01*
X126540000Y-55435434D01*
X126550459Y-55522530D01*
X126550459Y-55522531D01*
X126605118Y-55661137D01*
X126630540Y-55694660D01*
X126655363Y-55759972D01*
X126640935Y-55828336D01*
X126630542Y-55844508D01*
X126604679Y-55878614D01*
X126604677Y-55878619D01*
X126549971Y-56017342D01*
X126549969Y-56017350D01*
X126539500Y-56104531D01*
X126539500Y-56705468D01*
X126549969Y-56792649D01*
X126549971Y-56792657D01*
X126604677Y-56931380D01*
X126604680Y-56931386D01*
X126631938Y-56967331D01*
X126694788Y-57050212D01*
X126775880Y-57111705D01*
X126808996Y-57136818D01*
X126813616Y-57140321D01*
X126813619Y-57140322D01*
X126952342Y-57195028D01*
X126952344Y-57195028D01*
X126952348Y-57195030D01*
X127010470Y-57202010D01*
X127039531Y-57205500D01*
X127039532Y-57205500D01*
X127275500Y-57205500D01*
X127342539Y-57225185D01*
X127388294Y-57277989D01*
X127399500Y-57329500D01*
X127399500Y-58586606D01*
X127408473Y-58631716D01*
X127423538Y-58707455D01*
X127423539Y-58707460D01*
X127428201Y-58718712D01*
X127428203Y-58718716D01*
X127470688Y-58821286D01*
X127470689Y-58821288D01*
X127470690Y-58821289D01*
X127470690Y-58821290D01*
X127498039Y-58862219D01*
X127498040Y-58862220D01*
X127539141Y-58923732D01*
X127539144Y-58923736D01*
X127630586Y-59015178D01*
X127630608Y-59015198D01*
X128561038Y-59945628D01*
X128594523Y-60006951D01*
X128596678Y-60020347D01*
X128597926Y-60032216D01*
X128613230Y-60177830D01*
X128614327Y-60188261D01*
X128638556Y-60262831D01*
X128640551Y-60332672D01*
X128604470Y-60392504D01*
X128546406Y-60422438D01*
X128408349Y-60451782D01*
X128408344Y-60451784D01*
X128235423Y-60528775D01*
X128100223Y-60627003D01*
X128034416Y-60650482D01*
X127966362Y-60634656D01*
X127917668Y-60584550D01*
X127903793Y-60516072D01*
X127904018Y-60513720D01*
X127905460Y-60500002D01*
X127905460Y-60500000D01*
X127885674Y-60311744D01*
X127827179Y-60131716D01*
X127732533Y-59967784D01*
X127605871Y-59827112D01*
X127584719Y-59811744D01*
X127452734Y-59715851D01*
X127452729Y-59715848D01*
X127279807Y-59638857D01*
X127279802Y-59638855D01*
X127134001Y-59607865D01*
X127094646Y-59599500D01*
X127094645Y-59599500D01*
X127000097Y-59599500D01*
X126933058Y-59579815D01*
X126912416Y-59563181D01*
X125337590Y-57988355D01*
X125337588Y-57988352D01*
X125218717Y-57869481D01*
X125218716Y-57869480D01*
X125131904Y-57819360D01*
X125131904Y-57819359D01*
X125131900Y-57819358D01*
X125081785Y-57790423D01*
X124929057Y-57749499D01*
X124770943Y-57749499D01*
X124763347Y-57749499D01*
X124763331Y-57749500D01*
X117016953Y-57749500D01*
X116949914Y-57729815D01*
X116904159Y-57677011D01*
X116893628Y-57612576D01*
X116893708Y-57611803D01*
X116893921Y-57609777D01*
X116920486Y-57545158D01*
X116929555Y-57535033D01*
X117089969Y-57374619D01*
X117151289Y-57341137D01*
X117220981Y-57346121D01*
X117237081Y-57353475D01*
X117237670Y-57353797D01*
X117372517Y-57404091D01*
X117372516Y-57404091D01*
X117379444Y-57404835D01*
X117432127Y-57410500D01*
X118727872Y-57410499D01*
X118787483Y-57404091D01*
X118922331Y-57353796D01*
X119037546Y-57267546D01*
X119123796Y-57152331D01*
X119174091Y-57017483D01*
X119180500Y-56957873D01*
X119180500Y-56250000D01*
X119900000Y-56250000D01*
X119900000Y-56957844D01*
X119906401Y-57017372D01*
X119906403Y-57017379D01*
X119956645Y-57152086D01*
X119956649Y-57152093D01*
X120042809Y-57267187D01*
X120042812Y-57267190D01*
X120157906Y-57353350D01*
X120157913Y-57353354D01*
X120292620Y-57403596D01*
X120292627Y-57403598D01*
X120352155Y-57409999D01*
X120352172Y-57410000D01*
X120750000Y-57410000D01*
X120750000Y-56250000D01*
X121250000Y-56250000D01*
X121250000Y-57410000D01*
X121647828Y-57410000D01*
X121647844Y-57409999D01*
X121707372Y-57403598D01*
X121707379Y-57403596D01*
X121842086Y-57353354D01*
X121842093Y-57353350D01*
X121957187Y-57267190D01*
X121957190Y-57267187D01*
X122043350Y-57152093D01*
X122043354Y-57152086D01*
X122093596Y-57017379D01*
X122093598Y-57017372D01*
X122099999Y-56957844D01*
X122100000Y-56957827D01*
X122100000Y-56522870D01*
X122449500Y-56522870D01*
X122449501Y-56522876D01*
X122455908Y-56582483D01*
X122506202Y-56717328D01*
X122506206Y-56717335D01*
X122592452Y-56832544D01*
X122592455Y-56832547D01*
X122707664Y-56918793D01*
X122707671Y-56918797D01*
X122842517Y-56969091D01*
X122842516Y-56969091D01*
X122849444Y-56969835D01*
X122902127Y-56975500D01*
X123897872Y-56975499D01*
X123957483Y-56969091D01*
X123987638Y-56957844D01*
X124092329Y-56918797D01*
X124092329Y-56918796D01*
X124092331Y-56918796D01*
X124126106Y-56893511D01*
X124191566Y-56869094D01*
X124259840Y-56883944D01*
X124274728Y-56893512D01*
X124307910Y-56918352D01*
X124307913Y-56918354D01*
X124442620Y-56968596D01*
X124442627Y-56968598D01*
X124502155Y-56974999D01*
X124502172Y-56975000D01*
X124750000Y-56975000D01*
X124750000Y-56250000D01*
X125250000Y-56250000D01*
X125250000Y-56975000D01*
X125497828Y-56975000D01*
X125497844Y-56974999D01*
X125557372Y-56968598D01*
X125557379Y-56968596D01*
X125692086Y-56918354D01*
X125692093Y-56918350D01*
X125807187Y-56832190D01*
X125807190Y-56832187D01*
X125893350Y-56717093D01*
X125893354Y-56717086D01*
X125943596Y-56582379D01*
X125943598Y-56582372D01*
X125949999Y-56522844D01*
X125950000Y-56522827D01*
X125950000Y-56250000D01*
X125250000Y-56250000D01*
X124750000Y-56250000D01*
X124750000Y-55874000D01*
X124769685Y-55806961D01*
X124822489Y-55761206D01*
X124874000Y-55750000D01*
X125950000Y-55750000D01*
X125950000Y-55477172D01*
X125949999Y-55477155D01*
X125943598Y-55417627D01*
X125943596Y-55417620D01*
X125893354Y-55282913D01*
X125893350Y-55282906D01*
X125807191Y-55167813D01*
X125788505Y-55153825D01*
X125746634Y-55097891D01*
X125741650Y-55028200D01*
X125755427Y-54992560D01*
X125827179Y-54868284D01*
X125885674Y-54688256D01*
X125905460Y-54500000D01*
X125885674Y-54311744D01*
X125827179Y-54131716D01*
X125732533Y-53967784D01*
X125605871Y-53827112D01*
X125605870Y-53827111D01*
X125452734Y-53715851D01*
X125452729Y-53715848D01*
X125279807Y-53638857D01*
X125279804Y-53638856D01*
X125248628Y-53632229D01*
X125187146Y-53599035D01*
X125153371Y-53537871D01*
X125158025Y-53468157D01*
X125199631Y-53412025D01*
X125231079Y-53394757D01*
X125342084Y-53353355D01*
X125342093Y-53353350D01*
X125457187Y-53267190D01*
X125457190Y-53267187D01*
X125543350Y-53152093D01*
X125543354Y-53152086D01*
X125593596Y-53017379D01*
X125593598Y-53017372D01*
X125599999Y-52957844D01*
X125600000Y-52957827D01*
X125600000Y-52345000D01*
X126540000Y-52345000D01*
X127775000Y-52345000D01*
X127775000Y-51795000D01*
X127039566Y-51795000D01*
X126952469Y-51805459D01*
X126952468Y-51805459D01*
X126813860Y-51860119D01*
X126695144Y-51950144D01*
X126605119Y-52068860D01*
X126550459Y-52207468D01*
X126550459Y-52207469D01*
X126540000Y-52294565D01*
X126540000Y-52345000D01*
X125600000Y-52345000D01*
X125600000Y-52250000D01*
X124750000Y-52250000D01*
X124750000Y-53410000D01*
X124772340Y-53432340D01*
X124805825Y-53493663D01*
X124800841Y-53563355D01*
X124758969Y-53619288D01*
X124722982Y-53637950D01*
X124720199Y-53638854D01*
X124547270Y-53715848D01*
X124547265Y-53715851D01*
X124394129Y-53827111D01*
X124267466Y-53967785D01*
X124172821Y-54131715D01*
X124172818Y-54131722D01*
X124122033Y-54288024D01*
X124114326Y-54311744D01*
X124096679Y-54479649D01*
X124070094Y-54544263D01*
X124061039Y-54554368D01*
X123627227Y-54988181D01*
X123565904Y-55021666D01*
X123539546Y-55024500D01*
X122902129Y-55024500D01*
X122902123Y-55024501D01*
X122842516Y-55030908D01*
X122707671Y-55081202D01*
X122707664Y-55081206D01*
X122592455Y-55167452D01*
X122592452Y-55167455D01*
X122506206Y-55282664D01*
X122506202Y-55282671D01*
X122455908Y-55417517D01*
X122449501Y-55477116D01*
X122449500Y-55477135D01*
X122449500Y-56522870D01*
X122100000Y-56522870D01*
X122100000Y-56250000D01*
X121250000Y-56250000D01*
X120750000Y-56250000D01*
X119900000Y-56250000D01*
X119180500Y-56250000D01*
X119180499Y-55335451D01*
X119200184Y-55268413D01*
X119216813Y-55247776D01*
X119755814Y-54708774D01*
X119817134Y-54675292D01*
X119886825Y-54680276D01*
X119942759Y-54722147D01*
X119967176Y-54787612D01*
X119959674Y-54839790D01*
X119906403Y-54982617D01*
X119906401Y-54982627D01*
X119900000Y-55042155D01*
X119900000Y-55750000D01*
X120750000Y-55750000D01*
X120750000Y-54590000D01*
X121250000Y-54590000D01*
X121250000Y-55750000D01*
X122100000Y-55750000D01*
X122100000Y-55042172D01*
X122099999Y-55042155D01*
X122093598Y-54982627D01*
X122093596Y-54982620D01*
X122043354Y-54847913D01*
X122043350Y-54847906D01*
X121957190Y-54732812D01*
X121957187Y-54732809D01*
X121842093Y-54646649D01*
X121842086Y-54646645D01*
X121707379Y-54596403D01*
X121707372Y-54596401D01*
X121647844Y-54590000D01*
X121250000Y-54590000D01*
X120750000Y-54590000D01*
X120352155Y-54590000D01*
X120292627Y-54596401D01*
X120292617Y-54596403D01*
X120149790Y-54649674D01*
X120080099Y-54654658D01*
X120018776Y-54621172D01*
X119985292Y-54559849D01*
X119990277Y-54490157D01*
X120018774Y-54445815D01*
X121017771Y-53446817D01*
X121079094Y-53413333D01*
X121105452Y-53410499D01*
X122227871Y-53410499D01*
X122227872Y-53410499D01*
X122287483Y-53404091D01*
X122422331Y-53353796D01*
X122537546Y-53267546D01*
X122623796Y-53152331D01*
X122674091Y-53017483D01*
X122680500Y-52957873D01*
X122680499Y-52250000D01*
X123400000Y-52250000D01*
X123400000Y-52957844D01*
X123406401Y-53017372D01*
X123406403Y-53017379D01*
X123456645Y-53152086D01*
X123456649Y-53152093D01*
X123542809Y-53267187D01*
X123542812Y-53267190D01*
X123657906Y-53353350D01*
X123657913Y-53353354D01*
X123792620Y-53403596D01*
X123792627Y-53403598D01*
X123852155Y-53409999D01*
X123852172Y-53410000D01*
X124250000Y-53410000D01*
X124250000Y-52250000D01*
X123400000Y-52250000D01*
X122680499Y-52250000D01*
X122680499Y-51750000D01*
X123400000Y-51750000D01*
X124250000Y-51750000D01*
X124250000Y-50590000D01*
X124750000Y-50590000D01*
X124750000Y-51750000D01*
X125600000Y-51750000D01*
X125600000Y-51042172D01*
X125599999Y-51042155D01*
X125593598Y-50982627D01*
X125593596Y-50982620D01*
X125543354Y-50847913D01*
X125543350Y-50847906D01*
X125457190Y-50732812D01*
X125457187Y-50732809D01*
X125342093Y-50646649D01*
X125342086Y-50646645D01*
X125207379Y-50596403D01*
X125207372Y-50596401D01*
X125147844Y-50590000D01*
X124750000Y-50590000D01*
X124250000Y-50590000D01*
X123852155Y-50590000D01*
X123792627Y-50596401D01*
X123792620Y-50596403D01*
X123657913Y-50646645D01*
X123657906Y-50646649D01*
X123542812Y-50732809D01*
X123542809Y-50732812D01*
X123456649Y-50847906D01*
X123456645Y-50847913D01*
X123406403Y-50982620D01*
X123406401Y-50982627D01*
X123400000Y-51042155D01*
X123400000Y-51750000D01*
X122680499Y-51750000D01*
X122680499Y-51042128D01*
X122674091Y-50982517D01*
X122623884Y-50847906D01*
X122623797Y-50847671D01*
X122623793Y-50847664D01*
X122537547Y-50732455D01*
X122537544Y-50732452D01*
X122422335Y-50646206D01*
X122422328Y-50646202D01*
X122287482Y-50595908D01*
X122287483Y-50595908D01*
X122227883Y-50589501D01*
X122227881Y-50589500D01*
X122227873Y-50589500D01*
X122227864Y-50589500D01*
X120932129Y-50589500D01*
X120932123Y-50589501D01*
X120872516Y-50595908D01*
X120737671Y-50646202D01*
X120737664Y-50646206D01*
X120622455Y-50732452D01*
X120622452Y-50732455D01*
X120536206Y-50847664D01*
X120536202Y-50847671D01*
X120485908Y-50982517D01*
X120479501Y-51042116D01*
X120479501Y-51042123D01*
X120479500Y-51042135D01*
X120479500Y-52164546D01*
X120459815Y-52231585D01*
X120443181Y-52252227D01*
X118142227Y-54553181D01*
X118080904Y-54586666D01*
X118054546Y-54589500D01*
X117432129Y-54589500D01*
X117432123Y-54589501D01*
X117372516Y-54595908D01*
X117237671Y-54646202D01*
X117237664Y-54646206D01*
X117122455Y-54732452D01*
X117122452Y-54732455D01*
X117036206Y-54847664D01*
X117036202Y-54847671D01*
X116985908Y-54982517D01*
X116979501Y-55042116D01*
X116979500Y-55042135D01*
X116979500Y-55664547D01*
X116959815Y-55731586D01*
X116943181Y-55752228D01*
X116132228Y-56563181D01*
X116070905Y-56596666D01*
X116044547Y-56599500D01*
X116035453Y-56599500D01*
X115968414Y-56579815D01*
X115947772Y-56563181D01*
X115741819Y-56357228D01*
X115708334Y-56295905D01*
X115705500Y-56269547D01*
X115705500Y-53020764D01*
X115725185Y-52953725D01*
X115777989Y-52907970D01*
X115786167Y-52904582D01*
X115922328Y-52853797D01*
X115922327Y-52853797D01*
X115922331Y-52853796D01*
X116037546Y-52767546D01*
X116123796Y-52652331D01*
X116174091Y-52517483D01*
X116180500Y-52457873D01*
X116180500Y-51750000D01*
X116900000Y-51750000D01*
X116900000Y-52457844D01*
X116906401Y-52517372D01*
X116906403Y-52517379D01*
X116956645Y-52652086D01*
X116956649Y-52652093D01*
X117042809Y-52767187D01*
X117042812Y-52767190D01*
X117157906Y-52853350D01*
X117157913Y-52853354D01*
X117292620Y-52903596D01*
X117292627Y-52903598D01*
X117352155Y-52909999D01*
X117352172Y-52910000D01*
X117750000Y-52910000D01*
X117750000Y-51750000D01*
X118250000Y-51750000D01*
X118250000Y-52910000D01*
X118647828Y-52910000D01*
X118647844Y-52909999D01*
X118707372Y-52903598D01*
X118707379Y-52903596D01*
X118842086Y-52853354D01*
X118842093Y-52853350D01*
X118957187Y-52767190D01*
X118957190Y-52767187D01*
X119043350Y-52652093D01*
X119043354Y-52652086D01*
X119093596Y-52517379D01*
X119093598Y-52517372D01*
X119099999Y-52457844D01*
X119100000Y-52457827D01*
X119100000Y-51750000D01*
X118250000Y-51750000D01*
X117750000Y-51750000D01*
X116900000Y-51750000D01*
X116180500Y-51750000D01*
X116180499Y-50542128D01*
X116174091Y-50482517D01*
X116172673Y-50478716D01*
X116123797Y-50347671D01*
X116123793Y-50347664D01*
X116037547Y-50232455D01*
X116037544Y-50232452D01*
X116025273Y-50223266D01*
X115983402Y-50167332D01*
X115978418Y-50097641D01*
X116011904Y-50036318D01*
X116073227Y-50002834D01*
X116099584Y-50000000D01*
X116981250Y-50000000D01*
X117048289Y-50019685D01*
G37*
%TD.AperFunction*%
%TD*%
M02*
