%TF.GenerationSoftware,KiCad,Pcbnew,8.0.1*%
%TF.CreationDate,2024-03-24T23:20:46+02:00*%
%TF.ProjectId,MSHPRI017_Micro_Mouse_Subsystem,4d534850-5249-4303-9137-5f4d6963726f,rev?*%
%TF.SameCoordinates,Original*%
%TF.FileFunction,Paste,Top*%
%TF.FilePolarity,Positive*%
%FSLAX46Y46*%
G04 Gerber Fmt 4.6, Leading zero omitted, Abs format (unit mm)*
G04 Created by KiCad (PCBNEW 8.0.1) date 2024-03-24 23:20:46*
%MOMM*%
%LPD*%
G01*
G04 APERTURE LIST*
G04 Aperture macros list*
%AMRoundRect*
0 Rectangle with rounded corners*
0 $1 Rounding radius*
0 $2 $3 $4 $5 $6 $7 $8 $9 X,Y pos of 4 corners*
0 Add a 4 corners polygon primitive as box body*
4,1,4,$2,$3,$4,$5,$6,$7,$8,$9,$2,$3,0*
0 Add four circle primitives for the rounded corners*
1,1,$1+$1,$2,$3*
1,1,$1+$1,$4,$5*
1,1,$1+$1,$6,$7*
1,1,$1+$1,$8,$9*
0 Add four rect primitives between the rounded corners*
20,1,$1+$1,$2,$3,$4,$5,0*
20,1,$1+$1,$4,$5,$6,$7,0*
20,1,$1+$1,$6,$7,$8,$9,0*
20,1,$1+$1,$8,$9,$2,$3,0*%
G04 Aperture macros list end*
%ADD10C,0.010000*%
%ADD11R,1.100000X1.380000*%
%ADD12R,1.200000X1.820000*%
%ADD13R,0.900000X0.950000*%
%ADD14R,0.750000X0.650000*%
%ADD15RoundRect,0.062500X-0.187500X-0.062500X0.187500X-0.062500X0.187500X0.062500X-0.187500X0.062500X0*%
%ADD16R,0.900000X1.400000*%
%ADD17R,0.750000X0.850000*%
%ADD18R,1.000000X1.450000*%
%ADD19R,0.570000X1.200000*%
%ADD20RoundRect,0.042000X-0.943000X-0.258000X0.943000X-0.258000X0.943000X0.258000X-0.943000X0.258000X0*%
%ADD21R,0.800000X0.800000*%
G04 APERTURE END LIST*
D10*
%TO.C,U1*%
X131145000Y-55320000D02*
X129855000Y-55320000D01*
X129855000Y-53680000D01*
X131145000Y-53680000D01*
X131145000Y-55320000D01*
G36*
X131145000Y-55320000D02*
G01*
X129855000Y-55320000D01*
X129855000Y-53680000D01*
X131145000Y-53680000D01*
X131145000Y-55320000D01*
G37*
%TD*%
D11*
%TO.C,C9*%
X101774000Y-60500000D03*
X103500000Y-60500000D03*
%TD*%
D12*
%TO.C,C1*%
X115080000Y-51500000D03*
X118000000Y-51500000D03*
%TD*%
D13*
%TO.C,R3*%
X123400000Y-56000000D03*
X125000000Y-56000000D03*
%TD*%
D14*
%TO.C,MotorDriver1*%
X130050000Y-61850000D03*
X130050000Y-62650000D03*
D15*
X129100000Y-61500000D03*
X129100000Y-62000000D03*
X129100000Y-62500000D03*
X129100000Y-63000000D03*
X131000000Y-63000000D03*
X131000000Y-62500000D03*
X131000000Y-62000000D03*
X131000000Y-61500000D03*
%TD*%
D16*
%TO.C,SW1*%
X130500000Y-79000000D03*
X133500000Y-79000000D03*
X135000000Y-79000000D03*
D17*
X129375000Y-79967000D03*
X129375000Y-82117000D03*
X136125000Y-79967000D03*
X136125000Y-82092000D03*
%TD*%
D11*
%TO.C,C10*%
X101774000Y-65000000D03*
X103500000Y-65000000D03*
%TD*%
D18*
%TO.C,R1*%
X137100000Y-52950000D03*
X139000000Y-52950000D03*
%TD*%
D19*
%TO.C,D1*%
X104000000Y-56000000D03*
X102470000Y-56000000D03*
%TD*%
D12*
%TO.C,C2*%
X121580000Y-52000000D03*
X124500000Y-52000000D03*
%TD*%
%TO.C,C3*%
X118080000Y-56000000D03*
X121000000Y-56000000D03*
%TD*%
D14*
%TO.C,MotorDriver2*%
X130050000Y-72350000D03*
X130050000Y-73150000D03*
D15*
X129100000Y-72000000D03*
X129100000Y-72500000D03*
X129100000Y-73000000D03*
X129100000Y-73500000D03*
X131000000Y-73500000D03*
X131000000Y-73000000D03*
X131000000Y-72500000D03*
X131000000Y-72000000D03*
%TD*%
D20*
%TO.C,U1*%
X128025000Y-52595000D03*
X128025000Y-53865000D03*
X128025000Y-55135000D03*
X128025000Y-56405000D03*
X132975000Y-56405000D03*
X132975000Y-55135000D03*
X132975000Y-53865000D03*
X132975000Y-52595000D03*
%TD*%
D12*
%TO.C,C4*%
X108080000Y-52500000D03*
X111000000Y-52500000D03*
%TD*%
D21*
%TO.C,D2*%
X103500000Y-51500000D03*
X102000000Y-51500000D03*
%TD*%
D13*
%TO.C,R4*%
X136900000Y-62500000D03*
X138500000Y-62500000D03*
%TD*%
D18*
%TO.C,R2*%
X137100000Y-56000000D03*
X139000000Y-56000000D03*
%TD*%
D13*
%TO.C,R5*%
X137400000Y-60000000D03*
X139000000Y-60000000D03*
%TD*%
M02*
