M48
; DRILL file {KiCad 8.0.1} date 2024-03-24T22:20:44+0200
; FORMAT={-:-/ absolute / inch / decimal}
; #@! TF.CreationDate,2024-03-24T22:20:44+02:00
; #@! TF.GenerationSoftware,Kicad,Pcbnew,8.0.1
; #@! TF.FileFunction,Plated,1,2,PTH
FMAT,2
INCH
; #@! TA.AperFunction,Plated,PTH,ViaDrill
T1C0.0157
; #@! TA.AperFunction,Plated,PTH,ComponentDrill
T2C0.0315
; #@! TA.AperFunction,Plated,PTH,ComponentDrill
T3C0.0394
%
G90
G05
T1
X3.9961Y-2.6575
X4.124Y-2.6083
X4.1339Y-2.3228
X4.1339Y-2.4409
X4.2126Y-2.5591
X4.2323Y-2.2441
X4.252Y-2.4803
X4.252Y-2.4803
X4.2795Y-2.6772
X4.3307Y-2.2441
X4.4291Y-2.6575
X4.5656Y-2.6785
X4.5669Y-2.2638
X4.5866Y-2.7953
X4.6063Y-2.7362
X4.6063Y-2.9331
X4.6457Y-2.0276
X4.8228Y-2.1457
X4.8425Y-2.3819
X4.9213Y-2.1457
X4.9311Y-2.5689
X4.9409Y-2.5
X4.9409Y-2.6969
X5.0Y-2.3819
X5.0197Y-3.0512
X5.0335Y-2.4896
X5.0335Y-2.7362
X5.0404Y-2.1207
X5.0665Y-2.4139
X5.0984Y-2.3031
X5.0984Y-2.3622
X5.1378Y-2.5394
X5.1772Y-2.3425
X5.1969Y-2.6181
X5.2165Y-2.3228
X5.2165Y-2.4882
X5.2264Y-2.7657
X5.2559Y-2.3228
X5.2559Y-2.4213
X5.315Y-2.5591
X5.3346Y-2.4016
X5.3346Y-3.0315
X5.3543Y-2.2244
X5.3543Y-2.815
X5.3545Y-2.5195
X5.4528Y-2.3031
X5.4528Y-2.5394
X5.4729Y-2.3617
T2
X4.0157Y-3.1496
X4.0157Y-3.2283
T3
X4.3685Y-2.3425
X4.3685Y-2.4425
X4.3685Y-2.5425
X4.3685Y-2.6425
X4.3685Y-2.7425
X4.3685Y-2.8425
X4.3685Y-2.9425
X4.3685Y-3.0425
X4.4685Y-2.3425
X4.4685Y-2.4425
X4.4685Y-2.5425
X4.4685Y-2.6425
X4.4685Y-2.7425
X4.4685Y-2.8425
X4.4685Y-2.9425
X4.4685Y-3.0425
M30
